<svg width="314" height="212" viewBox="0 0 314 212" version="1.1" xmlns="http://www.w3.org/2000/svg" xmlns:xlink="http://www.w3.org/1999/xlink" xmlns:figma="http://www.figma.com/figma/ns">
<title>Untitled</title>
<desc>Created using Figma</desc>
<g id="Canvas" transform="translate(194 324)" figma:type="canvas">
<g id="Most startups" style="mix-blend-mode:normal;" figma:type="text">
<use xlink:href="#path0_fill" transform="translate(-194 -336.5)" fill="#000000" fill-opacity="0.7" style="mix-blend-mode:normal;"/>
</g>
<g id="can change the world." style="mix-blend-mode:normal;" figma:type="text">
<use xlink:href="#path1_fill" transform="translate(23 -171)" fill="#000000" fill-opacity="0.7" style="mix-blend-mode:normal;"/>
</g>
<g id="you" style="mix-blend-mode:normal;" figma:type="text">
<use xlink:href="#path2_fill" transform="translate(-128 -191.5)" style="mix-blend-mode:normal;"/>
</g>
<g id="set out to change the world" style="mix-blend-mode:normal;" figma:type="text">
<use xlink:href="#path3_fill" transform="translate(-194 -278)" fill="#000000" fill-opacity="0.7" style="mix-blend-mode:normal;"/>
</g>
<g id="in some small way." style="mix-blend-mode:normal;" figma:type="text">
<use xlink:href="#path4_fill" transform="translate(-24 -247.5)" fill="#000000" fill-opacity="0.54" style="mix-blend-mode:normal;"/>
</g>
<g id="We built Convergence so" style="mix-blend-mode:normal;" figma:type="text">
<use xlink:href="#path5_fill" transform="translate(-194 -222)" fill="#000000" fill-opacity="0.7" style="mix-blend-mode:normal;"/>
<use xlink:href="#path6_fill" transform="translate(-194 -222)" fill="#000000" fill-opacity="0.8" style="mix-blend-mode:normal;"/>
</g>
</g>
<defs>
<path id="path0_fill" d="M 12.768 12.528L 17.76 36.288L 30.24 12.528L 35.568 12.528L 32.016 44.592L 27.792 44.592L 30.624 21.84C 30.752 20.496 30.96 19.152 31.248 17.808L 18.816 41.088L 15.168 41.088L 10.128 17.808C 9.936 19.184 9.728 20.528 9.504 21.84L 5.136 44.592L 0.912 44.592L 7.44 12.528L 12.768 12.528ZM 54.597 42.144C 52.421 44.192 49.829 45.216 46.821 45.216C 43.813 45.216 41.573 44.208 40.101 42.192C 39.109 40.816 38.613 38.896 38.613 36.432C 38.613 35.28 38.725 33.984 38.949 32.544C 39.653 28.16 41.093 24.944 43.269 22.896C 45.477 20.848 48.085 19.824 51.093 19.824C 54.101 19.824 56.325 20.832 57.765 22.848C 58.757 24.192 59.253 26.096 59.253 28.56C 59.253 29.744 59.141 31.056 58.917 32.496C 58.245 36.88 56.805 40.096 54.597 42.144ZM 50.469 23.376C 46.693 23.376 44.325 26.432 43.365 32.544C 43.173 33.792 43.077 34.912 43.077 35.904C 43.077 39.744 44.549 41.664 47.493 41.664C 49.029 41.664 50.453 40.944 51.765 39.504C 53.077 38.064 53.989 35.744 54.501 32.544C 54.725 31.04 54.837 29.648 54.837 28.368C 54.837 25.04 53.381 23.376 50.469 23.376ZM 62.7034 40.176C 64.6874 41.104 66.5594 41.568 68.3194 41.568C 70.0794 41.568 71.4074 41.232 72.3034 40.56C 73.4234 39.792 73.9834 38.816 73.9834 37.632C 73.9834 36.128 72.8314 34.928 70.5274 34.032C 69.4714 33.648 68.4154 33.232 67.3594 32.784C 66.3034 32.336 65.5034 31.696 64.9594 30.864C 64.4154 30 64.1434 29.232 64.1434 28.56C 64.1434 25.648 65.2154 23.376 67.3594 21.744C 69.0874 20.464 71.2634 19.824 73.8874 19.824C 76.5114 19.824 78.5594 20.288 80.0314 21.216L 78.4954 24.432C 76.7674 23.792 75.1034 23.472 73.5034 23.472C 71.9354 23.472 70.7354 23.76 69.9034 24.336C 68.8474 25.04 68.3194 25.984 68.3194 27.168C 68.3194 28.64 69.4874 29.792 71.8234 30.624C 72.8794 31.008 73.9354 31.44 74.9914 31.92C 76.0474 32.368 76.8474 33.008 77.3914 33.84C 77.9674 34.672 78.2554 35.424 78.2554 36.096C 78.2554 38.88 77.1674 41.168 74.9914 42.96C 73.1674 44.464 70.7994 45.216 67.8874 45.216C 66.5434 45.216 65.2154 45.04 63.9034 44.688C 62.6234 44.336 61.6794 43.92 61.0714 43.44L 62.7034 40.176ZM 90.3109 45.216C 87.8149 45.216 86.2629 44.704 85.6549 43.68C 85.2389 43.04 85.0309 42.224 85.0309 41.232C 85.0309 40.24 85.1109 39.264 85.2709 38.304L 87.5749 23.712L 82.8709 23.472L 83.7829 20.64L 88.2469 20.304L 89.5909 14.544L 93.5749 13.824L 92.5669 20.304L 99.6709 20.304L 98.6629 23.712L 91.9429 23.712L 89.5909 38.736C 89.4629 39.216 89.3989 39.616 89.3989 39.936C 89.3989 40.256 89.4309 40.528 89.4949 40.752C 89.6869 41.296 90.2149 41.568 91.0789 41.568C 92.5509 41.568 93.8149 41.392 94.8709 41.04L 95.2069 44.256C 93.5749 44.896 91.9429 45.216 90.3109 45.216ZM 110.141 40.176C 112.125 41.104 113.997 41.568 115.757 41.568C 117.517 41.568 118.845 41.232 119.741 40.56C 120.861 39.792 121.421 38.816 121.421 37.632C 121.421 36.128 120.269 34.928 117.965 34.032C 116.909 33.648 115.853 33.232 114.797 32.784C 113.741 32.336 112.941 31.696 112.397 30.864C 111.853 30 111.581 29.232 111.581 28.56C 111.581 25.648 112.653 23.376 114.797 21.744C 116.525 20.464 118.701 19.824 121.325 19.824C 123.949 19.824 125.997 20.288 127.469 21.216L 125.933 24.432C 124.205 23.792 122.541 23.472 120.941 23.472C 119.373 23.472 118.173 23.76 117.341 24.336C 116.285 25.04 115.757 25.984 115.757 27.168C 115.757 28.64 116.925 29.792 119.261 30.624C 120.317 31.008 121.373 31.44 122.429 31.92C 123.485 32.368 124.285 33.008 124.829 33.84C 125.405 34.672 125.693 35.424 125.693 36.096C 125.693 38.88 124.605 41.168 122.429 42.96C 120.605 44.464 118.237 45.216 115.325 45.216C 113.981 45.216 112.653 45.04 111.341 44.688C 110.061 44.336 109.117 43.92 108.509 43.44L 110.141 40.176ZM 137.748 45.216C 135.252 45.216 133.7 44.704 133.092 43.68C 132.676 43.04 132.468 42.224 132.468 41.232C 132.468 40.24 132.548 39.264 132.708 38.304L 135.012 23.712L 130.308 23.472L 131.22 20.64L 135.684 20.304L 137.028 14.544L 141.012 13.824L 140.004 20.304L 147.108 20.304L 146.1 23.712L 139.38 23.712L 137.028 38.736C 136.9 39.216 136.836 39.616 136.836 39.936C 136.836 40.256 136.868 40.528 136.932 40.752C 137.124 41.296 137.652 41.568 138.516 41.568C 139.988 41.568 141.252 41.392 142.308 41.04L 142.644 44.256C 141.012 44.896 139.38 45.216 137.748 45.216ZM 152.111 45.216C 150.03 45.216 148.478 44.608 147.454 43.392C 146.687 42.464 146.302 41.296 146.302 39.888C 146.302 38 146.735 36.496 147.599 35.376C 148.463 34.256 149.39 33.472 150.383 33.024C 152.142 32.224 153.935 31.824 155.759 31.824C 157.582 31.824 159.279 31.904 160.846 32.064L 161.422 28.32C 161.518 27.648 161.567 26.96 161.567 26.256C 161.567 25.52 161.406 24.944 161.086 24.528C 160.574 23.824 159.439 23.472 157.678 23.472C 155.951 23.472 153.79 23.904 151.199 24.768L 150.671 21.744C 151.694 21.168 152.99 20.704 154.559 20.352C 156.127 20 157.47 19.824 158.591 19.824C 161.694 19.824 163.79 20.496 164.878 21.84C 165.582 22.736 165.935 24.064 165.935 25.824C 165.935 26.656 165.855 27.584 165.695 28.608L 163.87 40.272C 163.806 40.528 163.774 40.752 163.774 40.944C 163.774 41.616 164.095 41.952 164.734 41.952C 165.247 41.952 165.982 41.808 166.943 41.52L 167.231 44.208C 166.015 44.912 164.638 45.264 163.102 45.264C 161.182 45.264 159.966 44.448 159.455 42.816C 158.655 43.488 157.582 44.064 156.238 44.544C 154.895 44.992 153.519 45.216 152.111 45.216ZM 150.383 39.024C 150.383 40.88 151.422 41.808 153.503 41.808C 155.583 41.808 157.599 41.232 159.55 40.08L 160.463 34.512C 159.695 34.384 158.446 34.32 156.719 34.32C 152.974 34.32 150.894 35.568 150.479 38.064C 150.414 38.416 150.383 38.736 150.383 39.024ZM 185.727 19.824C 186.655 19.824 187.343 19.904 187.791 20.064L 186.399 23.52C 186.111 23.488 185.695 23.472 185.151 23.472C 181.695 23.472 179.119 24.736 177.423 27.264L 174.687 44.592L 170.367 44.592L 174.207 20.304L 177.807 20.304L 177.711 23.904C 178.447 22.944 179.535 22.032 180.975 21.168C 182.447 20.272 184.031 19.824 185.727 19.824ZM 195.92 45.216C 193.424 45.216 191.872 44.704 191.264 43.68C 190.848 43.04 190.64 42.224 190.64 41.232C 190.64 40.24 190.72 39.264 190.88 38.304L 193.184 23.712L 188.48 23.472L 189.392 20.64L 193.856 20.304L 195.2 14.544L 199.184 13.824L 198.176 20.304L 205.28 20.304L 204.272 23.712L 197.552 23.712L 195.2 38.736C 195.072 39.216 195.008 39.616 195.008 39.936C 195.008 40.256 195.04 40.528 195.104 40.752C 195.296 41.296 195.824 41.568 196.688 41.568C 198.16 41.568 199.424 41.392 200.48 41.04L 200.816 44.256C 199.184 44.896 197.552 45.216 195.92 45.216ZM 219.882 42.432C 217.29 44.288 214.666 45.216 212.01 45.216C 209.386 45.216 207.674 44.496 206.874 43.056C 206.362 42.128 206.106 41.104 206.106 39.984C 206.106 38.864 206.17 37.856 206.298 36.96L 208.938 20.304L 213.258 20.304L 210.618 36.864C 210.49 37.568 210.426 38.224 210.426 38.832C 210.426 39.44 210.506 39.952 210.666 40.368C 210.986 41.136 211.85 41.52 213.258 41.52C 215.914 41.52 218.17 40.768 220.026 39.264L 223.002 20.448L 227.322 20.448L 223.434 45.024L 219.93 45.024L 219.882 42.432ZM 239.259 41.568C 243.291 41.568 245.803 38.384 246.795 32.016C 246.987 30.768 247.083 29.648 247.083 28.656C 247.083 25.2 245.819 23.472 243.291 23.472C 241.499 23.472 239.467 24.176 237.195 25.584L 234.795 40.896C 236.331 41.344 237.819 41.568 239.259 41.568ZM 244.539 19.824C 247.419 19.824 249.419 20.912 250.539 23.088C 251.275 24.496 251.643 26 251.643 27.6C 251.643 29.2 251.515 30.8 251.259 32.4C 251.003 33.968 250.571 35.504 249.963 37.008C 249.387 38.512 248.619 39.904 247.659 41.184C 245.643 43.872 242.635 45.216 238.635 45.216C 237.003 45.216 235.547 44.896 234.267 44.256L 232.587 54.864L 228.171 55.344L 233.739 20.256L 237.387 20.256L 237.387 22.272C 239.723 20.64 242.107 19.824 244.539 19.824ZM 254.938 40.176C 256.922 41.104 258.794 41.568 260.554 41.568C 262.314 41.568 263.642 41.232 264.538 40.56C 265.658 39.792 266.218 38.816 266.218 37.632C 266.218 36.128 265.066 34.928 262.762 34.032C 261.706 33.648 260.65 33.232 259.594 32.784C 258.538 32.336 257.738 31.696 257.194 30.864C 256.65 30 256.378 29.232 256.378 28.56C 256.378 25.648 257.45 23.376 259.594 21.744C 261.322 20.464 263.498 19.824 266.122 19.824C 268.746 19.824 270.794 20.288 272.266 21.216L 270.73 24.432C 269.002 23.792 267.338 23.472 265.738 23.472C 264.17 23.472 262.97 23.76 262.138 24.336C 261.082 25.04 260.554 25.984 260.554 27.168C 260.554 28.64 261.722 29.792 264.058 30.624C 265.114 31.008 266.17 31.44 267.226 31.92C 268.282 32.368 269.082 33.008 269.626 33.84C 270.202 34.672 270.49 35.424 270.49 36.096C 270.49 38.88 269.402 41.168 267.226 42.96C 265.402 44.464 263.034 45.216 260.122 45.216C 258.778 45.216 257.45 45.04 256.138 44.688C 254.858 44.336 253.914 43.92 253.306 43.44L 254.938 40.176Z"/>
<path id="path1_fill" d="M 5.54 18.88C 4.19333 18.88 3.08 18.44 2.2 17.56C 1.32 16.6667 0.88 15.34 0.88 13.58C 0.88 11.8067 1.32 10.48 2.2 9.6C 3.08 8.70667 4.16 8.26 5.44 8.26C 6.34667 8.26 7.17333 8.45333 7.92 8.84L 7.38 10.12C 6.67333 9.89333 6.04 9.78 5.48 9.78C 4.69333 9.78 4.03333 10.08 3.5 10.68C 2.98 11.28 2.72 12.24 2.72 13.56C 2.72 16.08 3.75333 17.34 5.82 17.34C 6.40667 17.34 7.02667 17.2533 7.68 17.08L 7.98 18.4C 7.12667 18.72 6.31333 18.88 5.54 18.88ZM 12.0552 18.84C 11.1885 18.84 10.4952 18.5867 9.97516 18.08C 9.46849 17.5733 9.21516 16.8933 9.21516 16.04C 9.21516 15.48 9.33516 15.0067 9.57516 14.62C 9.81516 14.2333 10.1285 13.9467 10.5152 13.76C 11.2085 13.4267 11.9352 13.26 12.6952 13.26C 13.4552 13.26 14.1618 13.2933 14.8152 13.36L 14.8152 11.8C 14.8152 11.0267 14.6818 10.5 14.4152 10.22C 14.1618 9.92667 13.6685 9.78 12.9352 9.78C 12.2018 9.78 11.3285 9.96 10.3152 10.32L 9.89516 9.06C 10.2818 8.82 10.7885 8.62667 11.4152 8.48C 12.0552 8.33333 12.6085 8.26 13.0752 8.26C 14.3685 8.26 15.2818 8.54 15.8152 9.1C 16.3485 9.66 16.6152 10.6 16.6152 11.92L 16.6152 16.78C 16.6152 17.2467 16.7752 17.48 17.0952 17.48C 17.3085 17.48 17.6018 17.42 17.9752 17.3L 18.2752 18.42C 17.8218 18.7133 17.2352 18.86 16.5152 18.86C 15.7952 18.86 15.2752 18.52 14.9552 17.84C 14.6618 18.12 14.2485 18.36 13.7152 18.56C 13.1952 18.7467 12.6418 18.84 12.0552 18.84ZM 12.4352 17.42C 13.2752 17.42 14.0685 17.18 14.8152 16.7L 14.8152 14.38C 14.4952 14.3267 13.9752 14.3 13.2552 14.3C 11.6952 14.3 10.9085 14.82 10.8952 15.86C 10.8952 16.9 11.4085 17.42 12.4352 17.42ZM 27.3612 11.64L 27.3612 18.58L 25.5612 18.58L 25.5612 11.74C 25.5612 11.1267 25.4813 10.6467 25.3212 10.3C 25.1613 9.95333 24.8346 9.78 24.3413 9.78C 23.8613 9.78 23.3346 9.91333 22.7613 10.18C 22.2012 10.4333 21.7612 10.7467 21.4413 11.12L 21.4413 18.58L 19.6413 18.58L 19.6413 8.46L 21.1413 8.46L 21.3412 9.68C 21.7146 9.32 22.2146 8.99333 22.8413 8.7C 23.4812 8.40667 24.0946 8.26 24.6812 8.26C 25.6813 8.26 26.3746 8.56 26.7612 9.16C 27.1613 9.74667 27.3612 10.5733 27.3612 11.64ZM 38.3916 18.88C 37.0449 18.88 35.9316 18.44 35.0516 17.56C 34.1716 16.6667 33.7316 15.34 33.7316 13.58C 33.7316 11.8067 34.1716 10.48 35.0516 9.6C 35.9316 8.70667 37.0116 8.26 38.2916 8.26C 39.1982 8.26 40.0249 8.45333 40.7716 8.84L 40.2316 10.12C 39.5249 9.89333 38.8916 9.78 38.3316 9.78C 37.5449 9.78 36.8849 10.08 36.3516 10.68C 35.8316 11.28 35.5716 12.24 35.5716 13.56C 35.5716 16.08 36.6049 17.34 38.6716 17.34C 39.2582 17.34 39.8782 17.2533 40.5316 17.08L 40.8316 18.4C 39.9782 18.72 39.1649 18.88 38.3916 18.88ZM 47.9034 8.26C 48.9034 8.26 49.5968 8.56 49.9834 9.16C 50.3834 9.74667 50.5834 10.5733 50.5834 11.64L 50.5834 18.58L 48.7834 18.58L 48.7834 11.74C 48.7834 11.1267 48.7034 10.6467 48.5434 10.3C 48.3834 9.95333 48.0568 9.78 47.5634 9.78C 47.0834 9.78 46.5634 9.90667 46.0034 10.16C 45.4568 10.4133 45.0234 10.7333 44.7034 11.12L 44.7034 18.58L 42.8834 18.58L 42.8834 4.6L 44.7034 4.44L 44.7034 9.62C 45.0901 9.26 45.5768 8.94667 46.1634 8.68C 46.7634 8.4 47.3434 8.26 47.9034 8.26ZM 55.395 18.84C 54.5283 18.84 53.835 18.5867 53.315 18.08C 52.8083 17.5733 52.555 16.8933 52.555 16.04C 52.555 15.48 52.675 15.0067 52.915 14.62C 53.155 14.2333 53.4683 13.9467 53.855 13.76C 54.5483 13.4267 55.275 13.26 56.035 13.26C 56.795 13.26 57.5017 13.2933 58.155 13.36L 58.155 11.8C 58.155 11.0267 58.0217 10.5 57.755 10.22C 57.5017 9.92667 57.0083 9.78 56.275 9.78C 55.5417 9.78 54.6683 9.96 53.655 10.32L 53.235 9.06C 53.6217 8.82 54.1283 8.62667 54.755 8.48C 55.395 8.33333 55.9483 8.26 56.415 8.26C 57.7083 8.26 58.6217 8.54 59.155 9.1C 59.6883 9.66 59.955 10.6 59.955 11.92L 59.955 16.78C 59.955 17.2467 60.115 17.48 60.435 17.48C 60.6483 17.48 60.9417 17.42 61.315 17.3L 61.615 18.42C 61.1617 18.7133 60.575 18.86 59.855 18.86C 59.135 18.86 58.615 18.52 58.295 17.84C 58.0017 18.12 57.5883 18.36 57.055 18.56C 56.535 18.7467 55.9817 18.84 55.395 18.84ZM 55.775 17.42C 56.615 17.42 57.4083 17.18 58.155 16.7L 58.155 14.38C 57.835 14.3267 57.315 14.3 56.595 14.3C 55.035 14.3 54.2483 14.82 54.235 15.86C 54.235 16.9 54.7483 17.42 55.775 17.42ZM 70.7011 11.64L 70.7011 18.58L 68.9011 18.58L 68.9011 11.74C 68.9011 11.1267 68.8211 10.6467 68.6611 10.3C 68.5011 9.95333 68.1744 9.78 67.6811 9.78C 67.2011 9.78 66.6744 9.91333 66.1011 10.18C 65.5411 10.4333 65.1011 10.7467 64.7811 11.12L 64.7811 18.58L 62.9811 18.58L 62.9811 8.46L 64.4811 8.46L 64.6811 9.68C 65.0544 9.32 65.5544 8.99333 66.1811 8.7C 66.8211 8.40667 67.4344 8.26 68.0211 8.26C 69.0211 8.26 69.7144 8.56 70.1011 9.16C 70.5011 9.74667 70.7011 10.5733 70.7011 11.64ZM 76.5322 8.26L 78.2122 8.36C 79.2122 8.36 80.2455 8.26667 81.3122 8.08L 81.5322 9.2C 81.0255 9.30667 80.3255 9.42 79.4322 9.54C 79.9389 10.1533 80.1922 10.9667 80.1922 11.98C 80.1922 12.9933 79.8855 13.84 79.2722 14.52C 78.6589 15.1867 77.7722 15.5267 76.6122 15.54C 76.2655 15.54 75.9255 15.5067 75.5922 15.44C 75.3789 15.9067 75.2722 16.2933 75.2722 16.6C 75.2722 17.0533 75.6255 17.28 76.3322 17.28L 78.1722 17.28C 79.1322 17.28 79.8789 17.5 80.4122 17.94C 80.9455 18.3667 81.2122 18.96 81.2122 19.72C 81.2122 20.8 80.7789 21.6667 79.9122 22.32C 79.0589 22.9733 77.9655 23.3 76.6322 23.3C 75.3122 23.3 74.3055 23.0733 73.6122 22.62C 72.9189 22.1667 72.5722 21.5267 72.5722 20.7C 72.5722 19.66 73.1855 18.82 74.4122 18.18C 74.0655 17.9 73.8922 17.4867 73.8922 16.94C 73.8922 16.3933 74.1522 15.7867 74.6722 15.12C 74.1255 14.8133 73.7055 14.38 73.4122 13.82C 73.1189 13.2467 72.9722 12.6067 72.9722 11.9C 72.9722 10.82 73.2722 9.94667 73.8722 9.28C 74.4722 8.6 75.3589 8.26 76.5322 8.26ZM 76.5922 9.64C 75.2855 9.64 74.6322 10.3867 74.6322 11.88C 74.6322 13.3733 75.2789 14.12 76.5722 14.12C 77.8789 14.12 78.5322 13.38 78.5322 11.9C 78.5322 11.1267 78.3789 10.56 78.0722 10.2C 77.7789 9.82667 77.2855 9.64 76.5922 9.64ZM 77.7922 18.84L 75.3322 18.84C 74.5855 19.16 74.2122 19.7 74.2122 20.46C 74.2122 20.9267 74.4389 21.2733 74.8922 21.5C 75.3455 21.74 75.9855 21.86 76.8122 21.86C 77.6522 21.86 78.3189 21.68 78.8122 21.32C 79.3055 20.9733 79.5522 20.4933 79.5522 19.88C 79.5522 19.52 79.4255 19.2533 79.1722 19.08C 78.9189 18.92 78.4589 18.84 77.7922 18.84ZM 86.9211 18.84C 85.4278 18.84 84.3144 18.3333 83.5811 17.32C 82.8611 16.2933 82.5011 15.0133 82.5011 13.48C 82.5011 11.9333 82.8878 10.68 83.6611 9.72C 84.4344 8.74667 85.4944 8.26 86.8411 8.26C 87.9744 8.26 88.8344 8.58 89.4211 9.22C 90.0211 9.84667 90.3211 10.68 90.3211 11.72C 90.3211 12.1867 90.2211 12.7867 90.0211 13.52L 84.1411 13.52C 84.1678 14.6533 84.4144 15.5733 84.8811 16.28C 85.3478 16.9867 86.0411 17.34 86.9611 17.34C 87.8944 17.34 88.7744 17.1533 89.6011 16.78L 90.0611 18.02C 89.1011 18.5667 88.0544 18.84 86.9211 18.84ZM 88.6811 12.06C 88.6811 11.34 88.5344 10.7733 88.2411 10.36C 87.9478 9.94667 87.5411 9.74 87.0211 9.74C 86.5011 9.74 86.0678 9.83333 85.7211 10.02C 85.3878 10.1933 85.1278 10.42 84.9411 10.7C 84.6211 11.2333 84.4211 11.7267 84.3411 12.18L 88.6811 12.22L 88.6811 12.06ZM 4.88 43.32C 3.84 43.32 3.15333 43.1067 2.82 42.68C 2.48667 42.24 2.32 41.4933 2.32 40.44L 2.32 34.36L 0.34 34.26L 0.52 33.08L 2.36 32.94L 2.54 30.54L 4.16 30.24L 4.16 32.94L 7.12 32.94L 6.94 34.36L 4.14 34.36L 4.14 40.62C 4.14 40.9 4.14667 41.1133 4.16 41.26C 4.18667 41.3933 4.26 41.52 4.38 41.64C 4.51333 41.7467 4.79333 41.8 5.22 41.8C 5.64667 41.8 6.07333 41.7267 6.5 41.58L 6.84 42.92C 6.21333 43.1867 5.56 43.32 4.88 43.32ZM 13.7823 32.74C 14.7823 32.74 15.4757 33.04 15.8623 33.64C 16.2623 34.2267 16.4623 35.0533 16.4623 36.12L 16.4623 43.06L 14.6623 43.06L 14.6623 36.22C 14.6623 35.6067 14.5823 35.1267 14.4223 34.78C 14.2623 34.4333 13.9357 34.26 13.4423 34.26C 12.9623 34.26 12.4423 34.3867 11.8823 34.64C 11.3357 34.8933 10.9023 35.2133 10.5823 35.6L 10.5823 43.06L 8.76234 43.06L 8.76234 29.08L 10.5823 28.92L 10.5823 34.1C 10.969 33.74 11.4557 33.4267 12.0423 33.16C 12.6423 32.88 13.2223 32.74 13.7823 32.74ZM 23.0539 43.32C 21.5606 43.32 20.4472 42.8133 19.7139 41.8C 18.9939 40.7733 18.6339 39.4933 18.6339 37.96C 18.6339 36.4133 19.0206 35.16 19.7939 34.2C 20.5672 33.2267 21.6272 32.74 22.9739 32.74C 24.1072 32.74 24.9672 33.06 25.5539 33.7C 26.1539 34.3267 26.4539 35.16 26.4539 36.2C 26.4539 36.6667 26.3539 37.2667 26.1539 38L 20.2739 38C 20.3006 39.1333 20.5472 40.0533 21.0139 40.76C 21.4806 41.4667 22.1739 41.82 23.0939 41.82C 24.0272 41.82 24.9072 41.6333 25.7339 41.26L 26.1939 42.5C 25.2339 43.0467 24.1872 43.32 23.0539 43.32ZM 24.8139 36.54C 24.8139 35.82 24.6672 35.2533 24.3739 34.84C 24.0806 34.4267 23.6739 34.22 23.1539 34.22C 22.6339 34.22 22.2006 34.3133 21.8539 34.5C 21.5206 34.6733 21.2606 34.9 21.0739 35.18C 20.7539 35.7133 20.5539 36.2067 20.4739 36.66L 24.8139 36.7L 24.8139 36.54ZM 38.0128 35.16L 36.0728 43.06L 34.2328 43.06L 31.6128 32.94L 33.4128 32.94L 35.2128 41.04L 37.1928 33.04L 38.8328 32.94L 40.8328 41.04L 42.6328 32.94L 44.4328 32.94L 41.8128 43.06L 39.9728 43.06L 38.0128 35.16ZM 52.8652 42.04C 52.0918 42.8933 51.0785 43.32 49.8252 43.32C 48.5718 43.32 47.5718 42.9 46.8252 42.06C 46.0785 41.22 45.7052 39.8867 45.7052 38.06C 45.7052 36.22 46.0918 34.8733 46.8652 34.02C 47.6518 33.1667 48.6718 32.74 49.9252 32.74C 51.1785 32.74 52.1718 33.16 52.9052 34C 53.6518 34.84 54.0252 36.18 54.0252 38.02C 54.0252 39.8467 53.6385 41.1867 52.8652 42.04ZM 49.8852 34.22C 48.3252 34.22 47.5452 35.4933 47.5452 38.04C 47.5452 40.5733 48.3185 41.84 49.8652 41.84C 50.5052 41.84 51.0518 41.54 51.5052 40.94C 51.9585 40.34 52.1852 39.34 52.1852 37.94C 52.1852 36.54 51.9852 35.5733 51.5852 35.04C 51.1985 34.4933 50.6318 34.22 49.8852 34.22ZM 58.1014 43.06L 56.3014 43.06L 56.3014 32.94L 57.8014 32.94L 58.0014 34.44C 58.2414 34.04 58.6347 33.66 59.1814 33.3C 59.7414 32.9267 60.3747 32.74 61.0814 32.74C 61.4681 32.74 61.7614 32.7733 61.9614 32.84L 61.6014 34.28C 61.4814 34.2667 61.3081 34.26 61.0814 34.26C 59.6281 34.26 58.6347 34.7867 58.1014 35.84L 58.1014 43.06ZM 63.548 29.06L 65.368 29.06L 65.368 41.02C 65.368 41.54 65.608 41.8 66.088 41.8C 66.4613 41.8 66.8546 41.7333 67.268 41.6L 67.568 42.92C 67.0213 43.1867 66.348 43.32 65.548 43.32C 64.2146 43.32 63.548 42.56 63.548 41.04L 63.548 29.06ZM 68.4005 38.2C 68.4005 34.56 69.8605 32.74 72.7805 32.74C 73.5138 32.74 74.1538 32.8933 74.7005 33.2L 74.7005 29.06L 76.5205 29.06L 76.5205 43.22L 75.1005 43.22L 74.8405 42.24C 74.0005 42.9067 73.0205 43.24 71.9005 43.24C 70.7938 43.24 69.9338 42.7867 69.3205 41.88C 68.7071 40.9733 68.4005 39.7467 68.4005 38.2ZM 72.7605 34.24C 71.0938 34.24 70.2605 35.5533 70.2605 38.18C 70.2605 40.5933 70.9405 41.8 72.3005 41.8C 73.2738 41.8 74.0738 41.5067 74.7005 40.92L 74.7005 34.6C 74.1405 34.36 73.4938 34.24 72.7605 34.24ZM 79.2316 41.08C 79.4716 40.84 79.7582 40.72 80.0916 40.72C 80.4249 40.72 80.7116 40.84 80.9516 41.08C 81.1916 41.3067 81.3116 41.5933 81.3116 41.94C 81.3116 42.2733 81.1916 42.5667 80.9516 42.82C 80.7116 43.06 80.4249 43.18 80.0916 43.18C 79.7582 43.18 79.4716 43.06 79.2316 42.82C 78.9916 42.5667 78.8716 42.2733 78.8716 41.94C 78.8716 41.5933 78.9916 41.3067 79.2316 41.08Z"/>
<path id="path2_fill" d="M 1.875 30.375L 1.21875 30.5C 0.760417 30.5 0.4375 30.1875 0.25 29.5625C 0.1875 29.3958 0.15625 29.1562 0.15625 28.8438C 0.15625 28.5312 0.333333 28.1458 0.6875 27.6875C 1.04167 27.2292 1.5 26.8333 2.0625 26.5C 3.3125 25.7292 4.63542 25.3438 6.03125 25.3438C 7.13542 25.3438 7.92708 25.5 8.40625 25.8125C 9.34375 26.3958 10.0729 27.5833 10.5938 29.375L 20.125 57.0312C 22.0833 52.6771 23.4271 49.5938 24.1562 47.7812L 26.0625 42.9375C 27.8333 38.1875 28.7188 35.0938 28.7188 33.6562C 28.7188 32.1979 28.4688 31.1354 27.9688 30.4688C 27.4688 29.8021 26.6042 29.4062 25.375 29.2812C 25.1458 29.0312 25.0312 28.6979 25.0312 28.2812C 25.0312 27.8438 25.2188 27.4479 25.5938 27.0938C 25.9896 26.7188 26.5 26.3958 27.125 26.125C 28.3958 25.6042 29.6979 25.3438 31.0312 25.3438C 32.3854 25.3438 33.3438 25.4167 33.9062 25.5625C 34.4688 25.6875 34.9167 25.9062 35.25 26.2188C 35.8958 26.8021 36.2188 27.8854 36.2188 29.4688C 36.2188 30.8854 35.1042 34.625 32.875 40.6875C 30.7917 46.1042 29.2292 50.0312 28.1875 52.4688C 24.3542 61.0104 21.4688 66.9896 19.5312 70.4062C 17.5938 73.8229 15.7604 76.1875 14.0312 77.5C 12.3021 78.8333 10.4792 79.5 8.5625 79.5C 6.64583 79.5 5.19792 79.0833 4.21875 78.25C 3.23958 77.4375 2.75 76.3125 2.75 74.875C 2.75 73.7917 3.02083 72.9792 3.5625 72.4375C 4.58333 71.4167 5.66667 71.0208 6.8125 71.25C 7 72.8125 7.9375 73.5938 9.625 73.5938C 11.1458 73.5938 12.5104 72.6042 13.7188 70.625C 14.2812 69.6875 14.8333 68.5938 15.375 67.3438L 17.1875 63.3125L 17.8125 62.0312C 16.6042 61.8646 15.5833 61.2708 14.75 60.25C 14.4167 59.8542 14.1458 59.3542 13.9375 58.75L 5.1875 35.7812L 4.4375 33.9375C 3.47917 31.5625 2.625 30.375 1.875 30.375ZM 40.7188 46.1875C 40.7188 43.6458 40.9688 41.3646 41.4688 39.3438C 41.9688 37.3229 42.6562 35.5417 43.5312 34C 44.4062 32.4583 45.4375 31.1458 46.625 30.0625C 47.8125 28.9583 49.0833 28.0625 50.4375 27.375C 53.0833 26.0208 55.9896 25.3438 59.1562 25.3438C 63.2188 25.3438 66.6667 26.8229 69.5 29.7812C 72.6458 33.0312 74.2188 37.3229 74.2188 42.6562C 74.2188 49.6562 72.3125 55.1042 68.5 59C 65.1875 62.3542 61.2188 64.0312 56.5938 64.0312C 51.7604 64.0312 47.8854 62.3333 44.9688 58.9375C 42.1354 55.6667 40.7188 51.4167 40.7188 46.1875ZM 58.4375 58.9375C 59.8333 58.9375 61.0833 58.6146 62.1875 57.9688C 63.2917 57.3021 64.2292 56.3958 65 55.25C 66.5417 52.875 67.3125 49.7917 67.3125 46C 67.3125 41.8333 66.5 38.2917 64.875 35.375C 63.0417 32.0208 60.4062 30.3438 56.9688 30.3438C 54.1979 30.3438 51.9792 31.4062 50.3125 33.5312C 48.5417 35.7812 47.6562 38.9271 47.6562 42.9688C 47.6562 48.0312 48.7708 52.0312 51 54.9688C 53 57.6146 55.4792 58.9375 58.4375 58.9375ZM 83.3438 35.625C 83.3438 34.4375 83.25 33.4896 83.0625 32.7812C 82.8958 32.0521 82.5417 31.6875 82 31.6875C 81.6042 31.6875 81.2917 31.7292 81.0625 31.8125L 80.3125 32.125C 80.1667 32.1667 79.9896 32.0833 79.7812 31.875C 79.3854 31.4375 79.1875 31.0417 79.1875 30.6875C 79.1875 30.3125 79.3021 29.9271 79.5312 29.5312C 79.7812 29.1146 80.1458 28.6458 80.625 28.125C 81.125 27.6042 81.6875 27.1458 82.3125 26.75C 83.7292 25.8125 85.0104 25.3438 86.1562 25.3438C 87.3021 25.3438 88.1146 25.5417 88.5938 25.9375C 89.0729 26.3333 89.4375 26.8542 89.6875 27.5C 90.1042 28.5417 90.3125 30.1146 90.3125 32.2188L 90.3125 51.7812C 90.3125 55.3021 91.375 57.2708 93.5 57.6875C 94.1458 57.8125 94.9062 57.875 95.7812 57.875C 96.6771 57.875 97.625 57.7604 98.625 57.5312C 99.6458 57.3021 100.615 57 101.531 56.625C 103.302 55.8958 104.865 54.9688 106.219 53.8438L 106.219 35.625C 106.219 33.6458 105.865 32.4271 105.156 31.9688C 104.865 31.7812 104.479 31.6875 104 31.6875C 103.521 31.6875 103.135 31.7604 102.844 31.9062C 102.573 32.0521 102.344 32.1562 102.156 32.2188C 101.99 32.2812 101.844 32.2812 101.719 32.2188C 101.594 32.1354 101.458 32.0208 101.312 31.875C 101 31.5208 100.844 31.1667 100.844 30.8125C 100.844 30.4583 100.969 30.0833 101.219 29.6875C 101.49 29.2708 101.917 28.8021 102.5 28.2812C 103.083 27.7396 103.75 27.25 104.5 26.8125C 106.188 25.8333 107.875 25.3438 109.562 25.3438C 111.604 25.3438 112.771 26.7917 113.062 29.6875C 113.146 30.5 113.188 31.3438 113.188 32.2188L 113.188 50.7188C 113.188 53.9271 113.312 55.9271 113.562 56.7188C 113.812 57.5104 114.115 58.0312 114.469 58.2812C 114.823 58.5104 115.26 58.625 115.781 58.625C 116.302 58.625 116.729 58.5417 117.062 58.375L 118 57.9688C 118.271 57.9062 118.51 58.0312 118.719 58.3438C 119.156 58.9896 119.219 59.5729 118.906 60.0938C 118.594 60.6146 118.104 61.1146 117.438 61.5938C 116.792 62.0729 116.062 62.4896 115.25 62.8438C 111.646 64.4271 109.083 64.3958 107.562 62.75C 106.771 61.8958 106.323 60.5417 106.219 58.6875C 103.156 61.0417 100.021 62.6667 96.8125 63.5625C 95.6458 63.875 94.4167 64.0312 93.125 64.0312C 91.8542 64.0312 90.6042 63.8542 89.375 63.5C 88.1667 63.1458 87.1146 62.5729 86.2188 61.7812C 84.3021 60.0938 83.3438 57.4896 83.3438 53.9688L 83.3438 35.625Z"/>
<path id="path3_fill" d="M 1.2 16.74C 2.08 17.1267 2.88667 17.32 3.62 17.32C 4.35333 17.32 4.88667 17.1867 5.22 16.92C 5.56667 16.64 5.74 16.3 5.74 15.9C 5.74 15.4867 5.57333 15.14 5.24 14.86C 4.92 14.58 4.52667 14.36 4.06 14.2C 3.59333 14.0267 3.12 13.8467 2.64 13.66C 2.17333 13.4733 1.77333 13.18 1.44 12.78C 1.12 12.3667 0.96 11.8533 0.96 11.24C 0.96 10.3333 1.28 9.61333 1.92 9.08C 2.56 8.53333 3.42667 8.26 4.52 8.26C 5.61333 8.26 6.49333 8.45333 7.16 8.84L 6.74 10.18C 5.96667 9.91333 5.25333 9.78 4.6 9.78C 3.94667 9.78 3.46 9.9 3.14 10.14C 2.82 10.38 2.66 10.7067 2.66 11.12C 2.66 11.52 2.82667 11.8533 3.16 12.12C 3.49333 12.3867 3.89333 12.6 4.36 12.76C 4.84 12.92 5.31333 13.1 5.78 13.3C 6.24667 13.4867 6.64667 13.78 6.98 14.18C 7.31333 14.58 7.48 15.08 7.48 15.68C 7.48 16.56 7.15333 17.3067 6.5 17.92C 5.84667 18.5333 4.91333 18.84 3.7 18.84C 3.14 18.84 2.57333 18.7667 2 18.62C 1.44 18.4733 1.02 18.3 0.74 18.1L 1.2 16.74ZM 13.5227 18.84C 12.0293 18.84 10.916 18.3333 10.1827 17.32C 9.46266 16.2933 9.10266 15.0133 9.10266 13.48C 9.10266 11.9333 9.48932 10.68 10.2627 9.72C 11.036 8.74667 12.096 8.26 13.4427 8.26C 14.576 8.26 15.436 8.58 16.0227 9.22C 16.6227 9.84667 16.9227 10.68 16.9227 11.72C 16.9227 12.1867 16.8227 12.7867 16.6227 13.52L 10.7427 13.52C 10.7693 14.6533 11.016 15.5733 11.4827 16.28C 11.9493 16.9867 12.6427 17.34 13.5627 17.34C 14.496 17.34 15.376 17.1533 16.2027 16.78L 16.6627 18.02C 15.7027 18.5667 14.656 18.84 13.5227 18.84ZM 15.2827 12.06C 15.2827 11.34 15.136 10.7733 14.8427 10.36C 14.5493 9.94667 14.1427 9.74 13.6227 9.74C 13.1027 9.74 12.6693 9.83333 12.3227 10.02C 11.9893 10.1933 11.7293 10.42 11.5427 10.7C 11.2227 11.2333 11.0227 11.7267 10.9427 12.18L 15.2827 12.22L 15.2827 12.06ZM 22.6144 18.84C 21.5744 18.84 20.8877 18.6267 20.5544 18.2C 20.221 17.76 20.0544 17.0133 20.0544 15.96L 20.0544 9.88L 18.0744 9.78L 18.2544 8.6L 20.0944 8.46L 20.2744 6.06L 21.8944 5.76L 21.8944 8.46L 24.8544 8.46L 24.6744 9.88L 21.8744 9.88L 21.8744 16.14C 21.8744 16.42 21.881 16.6333 21.8944 16.78C 21.921 16.9133 21.9944 17.04 22.1144 17.16C 22.2477 17.2667 22.5277 17.32 22.9544 17.32C 23.381 17.32 23.8077 17.2467 24.2344 17.1L 24.5744 18.44C 23.9477 18.7067 23.2944 18.84 22.6144 18.84ZM 37.4159 17.56C 36.6426 18.4133 35.6293 18.84 34.3759 18.84C 33.1226 18.84 32.1226 18.42 31.3759 17.58C 30.6293 16.74 30.2559 15.4067 30.2559 13.58C 30.2559 11.74 30.6426 10.3933 31.4159 9.54C 32.2026 8.68667 33.2226 8.26 34.4759 8.26C 35.7293 8.26 36.7226 8.68 37.4559 9.52C 38.2026 10.36 38.5759 11.7 38.5759 13.54C 38.5759 15.3667 38.1893 16.7067 37.4159 17.56ZM 34.4359 9.74C 32.8759 9.74 32.0959 11.0133 32.0959 13.56C 32.0959 16.0933 32.8693 17.36 34.4159 17.36C 35.0559 17.36 35.6026 17.06 36.0559 16.46C 36.5093 15.86 36.7359 14.86 36.7359 13.46C 36.7359 12.06 36.5359 11.0933 36.1359 10.56C 35.7493 10.0133 35.1826 9.74 34.4359 9.74ZM 43.6922 18.84C 42.5989 18.84 41.8389 18.5467 41.4122 17.96C 40.9855 17.36 40.7722 16.5067 40.7722 15.4L 40.7722 8.46L 42.5722 8.46L 42.5722 15.36C 42.5722 16.0267 42.6589 16.52 42.8322 16.84C 43.0055 17.1467 43.3522 17.3 43.8722 17.3C 44.4055 17.3 44.9189 17.22 45.4122 17.06C 45.9189 16.8867 46.3322 16.6533 46.6522 16.36L 46.6522 8.52L 48.4522 8.52L 48.4522 18.76L 46.9922 18.76L 46.7922 17.68C 46.4055 18 45.9322 18.2733 45.3722 18.5C 44.8122 18.7267 44.2522 18.84 43.6922 18.84ZM 54.6652 18.84C 53.6252 18.84 52.9385 18.6267 52.6052 18.2C 52.2718 17.76 52.1052 17.0133 52.1052 15.96L 52.1052 9.88L 50.1252 9.78L 50.3052 8.6L 52.1452 8.46L 52.3252 6.06L 53.9452 5.76L 53.9452 8.46L 56.9052 8.46L 56.7252 9.88L 53.9252 9.88L 53.9252 16.14C 53.9252 16.42 53.9318 16.6333 53.9452 16.78C 53.9718 16.9133 54.0452 17.04 54.1652 17.16C 54.2985 17.2667 54.5785 17.32 55.0052 17.32C 55.4318 17.32 55.8585 17.2467 56.2852 17.1L 56.6252 18.44C 55.9985 18.7067 55.3452 18.84 54.6652 18.84ZM 65.9347 18.84C 64.8947 18.84 64.208 18.6267 63.8747 18.2C 63.5414 17.76 63.3747 17.0133 63.3747 15.96L 63.3747 9.88L 61.3947 9.78L 61.5747 8.6L 63.4147 8.46L 63.5947 6.06L 65.2147 5.76L 65.2147 8.46L 68.1747 8.46L 67.9947 9.88L 65.1947 9.88L 65.1947 16.14C 65.1947 16.42 65.2014 16.6333 65.2147 16.78C 65.2414 16.9133 65.3147 17.04 65.4347 17.16C 65.568 17.2667 65.848 17.32 66.2747 17.32C 66.7014 17.32 67.128 17.2467 67.5547 17.1L 67.8947 18.44C 67.268 18.7067 66.6147 18.84 65.9347 18.84ZM 76.4784 17.56C 75.7051 18.4133 74.6918 18.84 73.4384 18.84C 72.1851 18.84 71.1851 18.42 70.4384 17.58C 69.6918 16.74 69.3184 15.4067 69.3184 13.58C 69.3184 11.74 69.7051 10.3933 70.4784 9.54C 71.2651 8.68667 72.2851 8.26 73.5384 8.26C 74.7918 8.26 75.7851 8.68 76.5184 9.52C 77.2651 10.36 77.6384 11.7 77.6384 13.54C 77.6384 15.3667 77.2518 16.7067 76.4784 17.56ZM 73.4984 9.74C 71.9384 9.74 71.1584 11.0133 71.1584 13.56C 71.1584 16.0933 71.9318 17.36 73.4784 17.36C 74.1184 17.36 74.6651 17.06 75.1184 16.46C 75.5718 15.86 75.7984 14.86 75.7984 13.46C 75.7984 12.06 75.5984 11.0933 75.1984 10.56C 74.8118 10.0133 74.2451 9.74 73.4984 9.74ZM 88.2939 18.88C 86.9472 18.88 85.8339 18.44 84.9539 17.56C 84.0739 16.6667 83.6339 15.34 83.6339 13.58C 83.6339 11.8067 84.0739 10.48 84.9539 9.6C 85.8339 8.70667 86.9139 8.26 88.1939 8.26C 89.1006 8.26 89.9272 8.45333 90.6739 8.84L 90.1339 10.12C 89.4272 9.89333 88.7939 9.78 88.2339 9.78C 87.4472 9.78 86.7872 10.08 86.2539 10.68C 85.7339 11.28 85.4739 12.24 85.4739 13.56C 85.4739 16.08 86.5072 17.34 88.5739 17.34C 89.1606 17.34 89.7806 17.2533 90.4339 17.08L 90.7339 18.4C 89.8806 18.72 89.0672 18.88 88.2939 18.88ZM 97.8058 8.26C 98.8058 8.26 99.4991 8.56 99.8858 9.16C 100.286 9.74667 100.486 10.5733 100.486 11.64L 100.486 18.58L 98.6858 18.58L 98.6858 11.74C 98.6858 11.1267 98.6058 10.6467 98.4458 10.3C 98.2858 9.95333 97.9591 9.78 97.4658 9.78C 96.9858 9.78 96.4658 9.90667 95.9058 10.16C 95.3591 10.4133 94.9258 10.7333 94.6058 11.12L 94.6058 18.58L 92.7858 18.58L 92.7858 4.6L 94.6058 4.44L 94.6058 9.62C 94.9924 9.26 95.4791 8.94667 96.0658 8.68C 96.6658 8.4 97.2458 8.26 97.8058 8.26ZM 105.297 18.84C 104.431 18.84 103.737 18.5867 103.217 18.08C 102.711 17.5733 102.457 16.8933 102.457 16.04C 102.457 15.48 102.577 15.0067 102.817 14.62C 103.057 14.2333 103.371 13.9467 103.757 13.76C 104.451 13.4267 105.177 13.26 105.937 13.26C 106.697 13.26 107.404 13.2933 108.057 13.36L 108.057 11.8C 108.057 11.0267 107.924 10.5 107.657 10.22C 107.404 9.92667 106.911 9.78 106.177 9.78C 105.444 9.78 104.571 9.96 103.557 10.32L 103.137 9.06C 103.524 8.82 104.031 8.62667 104.657 8.48C 105.297 8.33333 105.851 8.26 106.317 8.26C 107.611 8.26 108.524 8.54 109.057 9.1C 109.591 9.66 109.857 10.6 109.857 11.92L 109.857 16.78C 109.857 17.2467 110.017 17.48 110.337 17.48C 110.551 17.48 110.844 17.42 111.217 17.3L 111.517 18.42C 111.064 18.7133 110.477 18.86 109.757 18.86C 109.037 18.86 108.517 18.52 108.197 17.84C 107.904 18.12 107.491 18.36 106.957 18.56C 106.437 18.7467 105.884 18.84 105.297 18.84ZM 105.677 17.42C 106.517 17.42 107.311 17.18 108.057 16.7L 108.057 14.38C 107.737 14.3267 107.217 14.3 106.497 14.3C 104.937 14.3 104.151 14.82 104.137 15.86C 104.137 16.9 104.651 17.42 105.677 17.42ZM 120.603 11.64L 120.603 18.58L 118.803 18.58L 118.803 11.74C 118.803 11.1267 118.723 10.6467 118.563 10.3C 118.403 9.95333 118.077 9.78 117.583 9.78C 117.103 9.78 116.577 9.91333 116.003 10.18C 115.443 10.4333 115.003 10.7467 114.683 11.12L 114.683 18.58L 112.883 18.58L 112.883 8.46L 114.383 8.46L 114.583 9.68C 114.957 9.32 115.457 8.99333 116.083 8.7C 116.723 8.40667 117.337 8.26 117.923 8.26C 118.923 8.26 119.617 8.56 120.003 9.16C 120.403 9.74667 120.603 10.5733 120.603 11.64ZM 126.435 8.26L 128.115 8.36C 129.115 8.36 130.148 8.26667 131.215 8.08L 131.435 9.2C 130.928 9.30667 130.228 9.42 129.335 9.54C 129.841 10.1533 130.095 10.9667 130.095 11.98C 130.095 12.9933 129.788 13.84 129.175 14.52C 128.561 15.1867 127.675 15.5267 126.515 15.54C 126.168 15.54 125.828 15.5067 125.495 15.44C 125.281 15.9067 125.175 16.2933 125.175 16.6C 125.175 17.0533 125.528 17.28 126.235 17.28L 128.075 17.28C 129.035 17.28 129.781 17.5 130.315 17.94C 130.848 18.3667 131.115 18.96 131.115 19.72C 131.115 20.8 130.681 21.6667 129.815 22.32C 128.961 22.9733 127.868 23.3 126.535 23.3C 125.215 23.3 124.208 23.0733 123.515 22.62C 122.821 22.1667 122.475 21.5267 122.475 20.7C 122.475 19.66 123.088 18.82 124.315 18.18C 123.968 17.9 123.795 17.4867 123.795 16.94C 123.795 16.3933 124.055 15.7867 124.575 15.12C 124.028 14.8133 123.608 14.38 123.315 13.82C 123.021 13.2467 122.875 12.6067 122.875 11.9C 122.875 10.82 123.175 9.94667 123.775 9.28C 124.375 8.6 125.261 8.26 126.435 8.26ZM 126.495 9.64C 125.188 9.64 124.535 10.3867 124.535 11.88C 124.535 13.3733 125.181 14.12 126.475 14.12C 127.781 14.12 128.435 13.38 128.435 11.9C 128.435 11.1267 128.281 10.56 127.975 10.2C 127.681 9.82667 127.188 9.64 126.495 9.64ZM 127.695 18.84L 125.235 18.84C 124.488 19.16 124.115 19.7 124.115 20.46C 124.115 20.9267 124.341 21.2733 124.795 21.5C 125.248 21.74 125.888 21.86 126.715 21.86C 127.555 21.86 128.221 21.68 128.715 21.32C 129.208 20.9733 129.455 20.4933 129.455 19.88C 129.455 19.52 129.328 19.2533 129.075 19.08C 128.821 18.92 128.361 18.84 127.695 18.84ZM 136.823 18.84C 135.33 18.84 134.217 18.3333 133.483 17.32C 132.763 16.2933 132.403 15.0133 132.403 13.48C 132.403 11.9333 132.79 10.68 133.563 9.72C 134.337 8.74667 135.397 8.26 136.743 8.26C 137.877 8.26 138.737 8.58 139.323 9.22C 139.923 9.84667 140.223 10.68 140.223 11.72C 140.223 12.1867 140.123 12.7867 139.923 13.52L 134.043 13.52C 134.07 14.6533 134.317 15.5733 134.783 16.28C 135.25 16.9867 135.943 17.34 136.863 17.34C 137.797 17.34 138.677 17.1533 139.503 16.78L 139.963 18.02C 139.003 18.5667 137.957 18.84 136.823 18.84ZM 138.583 12.06C 138.583 11.34 138.437 10.7733 138.143 10.36C 137.85 9.94667 137.443 9.74 136.923 9.74C 136.403 9.74 135.97 9.83333 135.623 10.02C 135.29 10.1933 135.03 10.42 134.843 10.7C 134.523 11.2333 134.323 11.7267 134.243 12.18L 138.583 12.22L 138.583 12.06ZM 149.782 18.84C 148.742 18.84 148.056 18.6267 147.722 18.2C 147.389 17.76 147.222 17.0133 147.222 15.96L 147.222 9.88L 145.242 9.78L 145.422 8.6L 147.262 8.46L 147.442 6.06L 149.062 5.76L 149.062 8.46L 152.022 8.46L 151.842 9.88L 149.042 9.88L 149.042 16.14C 149.042 16.42 149.049 16.6333 149.062 16.78C 149.089 16.9133 149.162 17.04 149.282 17.16C 149.416 17.2667 149.696 17.32 150.122 17.32C 150.549 17.32 150.976 17.2467 151.402 17.1L 151.742 18.44C 151.116 18.7067 150.462 18.84 149.782 18.84ZM 158.685 8.26C 159.685 8.26 160.378 8.56 160.765 9.16C 161.165 9.74667 161.365 10.5733 161.365 11.64L 161.365 18.58L 159.565 18.58L 159.565 11.74C 159.565 11.1267 159.485 10.6467 159.325 10.3C 159.165 9.95333 158.838 9.78 158.345 9.78C 157.865 9.78 157.345 9.90667 156.785 10.16C 156.238 10.4133 155.805 10.7333 155.485 11.12L 155.485 18.58L 153.665 18.58L 153.665 4.6L 155.485 4.44L 155.485 9.62C 155.871 9.26 156.358 8.94667 156.945 8.68C 157.545 8.4 158.125 8.26 158.685 8.26ZM 167.956 18.84C 166.463 18.84 165.35 18.3333 164.616 17.32C 163.896 16.2933 163.536 15.0133 163.536 13.48C 163.536 11.9333 163.923 10.68 164.696 9.72C 165.47 8.74667 166.53 8.26 167.876 8.26C 169.01 8.26 169.87 8.58 170.456 9.22C 171.056 9.84667 171.356 10.68 171.356 11.72C 171.356 12.1867 171.256 12.7867 171.056 13.52L 165.176 13.52C 165.203 14.6533 165.45 15.5733 165.916 16.28C 166.383 16.9867 167.076 17.34 167.996 17.34C 168.93 17.34 169.81 17.1533 170.636 16.78L 171.096 18.02C 170.136 18.5667 169.09 18.84 167.956 18.84ZM 169.716 12.06C 169.716 11.34 169.57 10.7733 169.276 10.36C 168.983 9.94667 168.576 9.74 168.056 9.74C 167.536 9.74 167.103 9.83333 166.756 10.02C 166.423 10.1933 166.163 10.42 165.976 10.7C 165.656 11.2333 165.456 11.7267 165.376 12.18L 169.716 12.22L 169.716 12.06ZM 182.915 10.68L 180.975 18.58L 179.135 18.58L 176.515 8.46L 178.315 8.46L 180.115 16.56L 182.095 8.56L 183.735 8.46L 185.735 16.56L 187.535 8.46L 189.335 8.46L 186.715 18.58L 184.875 18.58L 182.915 10.68ZM 197.768 17.56C 196.994 18.4133 195.981 18.84 194.728 18.84C 193.474 18.84 192.474 18.42 191.727 17.58C 190.981 16.74 190.608 15.4067 190.608 13.58C 190.608 11.74 190.994 10.3933 191.768 9.54C 192.554 8.68667 193.574 8.26 194.827 8.26C 196.081 8.26 197.074 8.68 197.807 9.52C 198.554 10.36 198.928 11.7 198.928 13.54C 198.928 15.3667 198.541 16.7067 197.768 17.56ZM 194.787 9.74C 193.228 9.74 192.447 11.0133 192.447 13.56C 192.447 16.0933 193.221 17.36 194.768 17.36C 195.408 17.36 195.954 17.06 196.407 16.46C 196.861 15.86 197.088 14.86 197.088 13.46C 197.088 12.06 196.888 11.0933 196.488 10.56C 196.101 10.0133 195.534 9.74 194.787 9.74ZM 203.004 18.58L 201.204 18.58L 201.204 8.46L 202.704 8.46L 202.904 9.96C 203.144 9.56 203.537 9.18 204.084 8.82C 204.644 8.44667 205.277 8.26 205.984 8.26C 206.37 8.26 206.664 8.29333 206.864 8.36L 206.504 9.8C 206.384 9.78667 206.21 9.78 205.984 9.78C 204.53 9.78 203.537 10.3067 203.004 11.36L 203.004 18.58ZM 208.45 4.58L 210.27 4.58L 210.27 16.54C 210.27 17.06 210.51 17.32 210.99 17.32C 211.364 17.32 211.757 17.2533 212.17 17.12L 212.47 18.44C 211.924 18.7067 211.25 18.84 210.45 18.84C 209.117 18.84 208.45 18.08 208.45 16.56L 208.45 4.58ZM 213.303 13.72C 213.303 10.08 214.763 8.26 217.683 8.26C 218.416 8.26 219.056 8.41333 219.603 8.72L 219.603 4.58L 221.423 4.58L 221.423 18.74L 220.003 18.74L 219.743 17.76C 218.903 18.4267 217.923 18.76 216.803 18.76C 215.696 18.76 214.836 18.3067 214.223 17.4C 213.609 16.4933 213.303 15.2667 213.303 13.72ZM 217.663 9.76C 215.996 9.76 215.163 11.0733 215.163 13.7C 215.163 16.1133 215.843 17.32 217.203 17.32C 218.176 17.32 218.976 17.0267 219.603 16.44L 219.603 10.12C 219.043 9.88 218.396 9.76 217.663 9.76Z"/>
<path id="path4_fill" d="M 2.33105 4.27246C 2.17611 4.27246 2.03255 4.24967 1.90039 4.2041C 1.77279 4.15397 1.66113 4.08333 1.56543 3.99219C 1.36491 3.80078 1.26465 3.54329 1.26465 3.21973C 1.26465 2.90983 1.38314 2.64779 1.62012 2.43359C 1.84798 2.2194 2.12142 2.1123 2.44043 2.1123C 2.75944 2.1123 3.01465 2.20801 3.20605 2.39941C 3.39746 2.59082 3.49316 2.85059 3.49316 3.17871C 3.49316 3.48861 3.37923 3.75065 3.15137 3.96484C 2.92806 4.16992 2.65462 4.27246 2.33105 4.27246ZM 1.91406 13.877C 1.21224 13.877 0.861328 13.7174 0.861328 13.3984C 0.861328 13.2344 0.897786 13.1068 0.970703 13.0156C 1.08008 13.0521 1.18034 13.0703 1.27148 13.0703C 1.69531 13.0703 1.90267 12.8014 1.89355 12.2637L 1.89355 7.68359C 1.89355 7.36458 1.84798 7.14355 1.75684 7.02051C 1.67025 6.8929 1.51302 6.8291 1.28516 6.8291C 1.11654 6.8291 0.963867 6.84961 0.827148 6.89062C 0.745117 6.89974 0.685872 6.83594 0.649414 6.69922C 0.617513 6.57617 0.635742 6.46908 0.704102 6.37793C 0.772461 6.28223 0.877279 6.18424 1.01855 6.08398C 1.16439 5.97917 1.32389 5.88802 1.49707 5.81055C 1.87077 5.63281 2.18294 5.54395 2.43359 5.54395C 2.68424 5.54395 2.86882 5.5804 2.9873 5.65332C 3.11035 5.72624 3.20378 5.82422 3.26758 5.94727C 3.36784 6.14779 3.41797 6.47135 3.41797 6.91797L 3.41797 12.3799C 3.43164 12.7399 3.56152 12.9587 3.80762 13.0361C 3.87598 13.0589 3.96029 13.0794 4.06055 13.0977C 4.16081 13.1159 4.24967 13.1387 4.32715 13.166C 4.40918 13.1888 4.47298 13.2161 4.51855 13.248C 4.59603 13.3073 4.63477 13.403 4.63477 13.5352C 4.63477 13.6992 4.60059 13.8245 4.53223 13.9111C 4.43652 13.8883 4.29069 13.877 4.09473 13.877L 1.91406 13.877ZM 9.32422 13.9111C 9.23307 13.8883 9.08724 13.877 8.88672 13.877L 6.70605 13.877C 6.26855 13.877 5.98828 13.7995 5.86523 13.6445C 5.8151 13.5853 5.79004 13.5169 5.79004 13.4395C 5.79004 13.248 5.8265 13.1068 5.89941 13.0156C 6.00879 13.0521 6.13184 13.0703 6.26855 13.0703C 6.40983 13.0703 6.51465 13.0133 6.58301 12.8994C 6.65592 12.7855 6.6901 12.5736 6.68555 12.2637L 6.68555 7.79297C 6.68555 7.36458 6.60579 7.09798 6.44629 6.99316C 6.38249 6.95215 6.29818 6.93164 6.19336 6.93164C 6.08854 6.93164 6.00423 6.94759 5.94043 6.97949C 5.88118 7.01139 5.83105 7.03418 5.79004 7.04785C 5.75358 7.06152 5.72168 7.06152 5.69434 7.04785C 5.66699 7.02962 5.63965 7.00456 5.6123 6.97266C 5.54395 6.89974 5.50977 6.82454 5.50977 6.74707C 5.50977 6.66504 5.53711 6.58073 5.5918 6.49414C 5.65104 6.40299 5.74447 6.30046 5.87207 6.18652C 5.99967 6.06803 6.14551 5.96094 6.30957 5.86523C 6.67871 5.65104 7.04785 5.54395 7.41699 5.54395C 7.84082 5.54395 8.09147 5.82422 8.16895 6.38477C 8.19173 6.54883 8.2054 6.71745 8.20996 6.89062C 8.889 6.32096 9.62728 5.91536 10.4248 5.67383C 10.7119 5.58724 11.0013 5.54395 11.293 5.54395C 11.5892 5.54395 11.8695 5.58268 12.1338 5.66016C 12.4027 5.73763 12.6351 5.86296 12.8311 6.03613C 13.2458 6.40072 13.4531 6.97038 13.4531 7.74512L 13.4531 12.3799C 13.4668 12.7354 13.599 12.9541 13.8496 13.0361C 13.918 13.0589 14.0023 13.0794 14.1025 13.0977C 14.2028 13.1159 14.2917 13.1387 14.3691 13.166C 14.4512 13.1888 14.515 13.2161 14.5605 13.248C 14.638 13.3073 14.6768 13.403 14.6768 13.5352C 14.6768 13.6947 14.6403 13.82 14.5674 13.9111C 14.4762 13.8883 14.3304 13.877 14.1299 13.877L 11.9492 13.877C 11.5117 13.877 11.2314 13.7995 11.1084 13.6445C 11.0583 13.5853 11.0332 13.5169 11.0332 13.4395C 11.0332 13.248 11.0697 13.1068 11.1426 13.0156C 11.252 13.0521 11.3522 13.0703 11.4434 13.0703C 11.5391 13.0703 11.6188 13.0589 11.6826 13.0361C 11.7464 13.0088 11.7965 12.9655 11.833 12.9062C 11.8968 12.7969 11.9287 12.5827 11.9287 12.2637L 11.9287 8.23047C 11.9287 7.45573 11.6986 7.02279 11.2383 6.93164C 11.097 6.9043 10.9193 6.89062 10.7051 6.89062C 10.4954 6.89062 10.263 6.92253 10.0078 6.98633C 9.7526 7.05013 9.51335 7.13216 9.29004 7.23242C 8.86165 7.42383 8.50163 7.66536 8.20996 7.95703L 8.20996 12.3799C 8.22363 12.7354 8.35352 12.9541 8.59961 13.0361C 8.67253 13.0589 8.75684 13.0794 8.85254 13.0977C 8.9528 13.1159 9.04395 13.1387 9.12598 13.166C 9.20801 13.1888 9.27181 13.2161 9.31738 13.248C 9.39486 13.3073 9.43359 13.403 9.43359 13.5352C 9.43359 13.6947 9.39714 13.82 9.32422 13.9111ZM 25.3203 7.9707C 25.3203 7.26888 25.0286 6.80404 24.4453 6.57617C 24.2585 6.50326 24.0557 6.4668 23.8369 6.4668C 23.6227 6.4668 23.4222 6.48503 23.2354 6.52148C 23.0531 6.55794 22.8913 6.61491 22.75 6.69238C 22.431 6.86556 22.2715 7.11393 22.2715 7.4375C 22.2715 7.7474 22.4036 8.01628 22.668 8.24414C 22.9596 8.48568 23.502 8.78418 24.2949 9.13965C 25.0879 9.49056 25.6986 9.87565 26.127 10.2949C 26.5599 10.7096 26.7764 11.1882 26.7764 11.7305C 26.7764 12.3411 26.5257 12.8561 26.0244 13.2754C 25.4365 13.763 24.623 14.0068 23.584 14.0068C 22.3125 14.0068 21.4329 13.7357 20.9453 13.1934C 20.7767 13.002 20.6924 12.7581 20.6924 12.4619C 20.6924 11.7464 20.8678 11.3294 21.2188 11.2109C 21.3053 11.1836 21.3874 11.1699 21.4648 11.1699C 21.679 11.1699 21.7952 11.236 21.8135 11.3682C 21.9137 12.5075 22.5518 13.0771 23.7275 13.0771C 24.4339 13.0771 24.9056 12.8789 25.1426 12.4824C 25.2201 12.3548 25.2588 12.1999 25.2588 12.0176C 25.2588 11.8353 25.1995 11.6689 25.0811 11.5186C 24.9671 11.3682 24.8076 11.2292 24.6025 11.1016C 24.3975 10.9694 24.1536 10.8418 23.8711 10.7188L 22.9619 10.3086C 21.5674 9.67057 20.8701 8.82292 20.8701 7.76562C 20.8701 7.08203 21.1732 6.53516 21.7793 6.125C 22.3535 5.73763 23.0941 5.54395 24.001 5.54395C 25.2314 5.54395 25.9971 5.81055 26.2979 6.34375C 26.3753 6.48047 26.4141 6.63086 26.4141 6.79492C 26.4141 6.95898 26.4049 7.1071 26.3867 7.23926C 26.3685 7.36686 26.3457 7.48307 26.3184 7.58789C 26.2728 7.78841 26.2204 7.92969 26.1611 8.01172C 26.0426 8.09831 25.8717 8.1416 25.6484 8.1416C 25.4297 8.1416 25.3203 8.08464 25.3203 7.9707ZM 28.1846 10.1035C 28.1846 9.54753 28.2393 9.0485 28.3486 8.60645C 28.458 8.16439 28.6084 7.77474 28.7998 7.4375C 28.9912 7.10026 29.2168 6.81315 29.4766 6.57617C 29.7363 6.33464 30.0143 6.13867 30.3105 5.98828C 30.8893 5.69206 31.5251 5.54395 32.2178 5.54395C 33.1064 5.54395 33.8607 5.86751 34.4805 6.51465C 35.1686 7.22559 35.5127 8.16439 35.5127 9.33105C 35.5127 10.8623 35.0957 12.054 34.2617 12.9062C 33.5371 13.64 32.6689 14.0068 31.6572 14.0068C 30.5999 14.0068 29.7523 13.6354 29.1143 12.8926C 28.4945 12.1771 28.1846 11.2474 28.1846 10.1035ZM 32.0605 12.8926C 32.3659 12.8926 32.6393 12.8219 32.8809 12.6807C 33.1224 12.5348 33.3275 12.3366 33.4961 12.0859C 33.8333 11.5664 34.002 10.8919 34.002 10.0625C 34.002 9.15104 33.8242 8.3763 33.4688 7.73828C 33.0677 7.00456 32.4912 6.6377 31.7393 6.6377C 31.1331 6.6377 30.6478 6.87012 30.2832 7.33496C 29.8958 7.82715 29.7021 8.5153 29.7021 9.39941C 29.7021 10.5068 29.946 11.3818 30.4336 12.0244C 30.8711 12.6032 31.4134 12.8926 32.0605 12.8926ZM 40.6055 13.9111C 40.5143 13.8883 40.3685 13.877 40.168 13.877L 37.9873 13.877C 37.5498 13.877 37.2695 13.7995 37.1465 13.6445C 37.0964 13.5853 37.0713 13.5169 37.0713 13.4395C 37.0713 13.248 37.1077 13.1068 37.1807 13.0156C 37.29 13.0521 37.4131 13.0703 37.5498 13.0703C 37.6911 13.0703 37.7959 13.0133 37.8643 12.8994C 37.9372 12.7855 37.9714 12.5736 37.9668 12.2637L 37.9668 7.79297C 37.9668 7.36458 37.887 7.09798 37.7275 6.99316C 37.6637 6.95215 37.5794 6.93164 37.4746 6.93164C 37.3698 6.93164 37.2855 6.94759 37.2217 6.97949C 37.1624 7.01139 37.1123 7.03418 37.0713 7.04785C 37.0348 7.06152 37.0029 7.06152 36.9756 7.04785C 36.9482 7.02962 36.9209 7.00456 36.8936 6.97266C 36.8252 6.89974 36.791 6.82454 36.791 6.74707C 36.791 6.66504 36.8184 6.58073 36.873 6.49414C 36.9323 6.40299 37.0257 6.30046 37.1533 6.18652C 37.2809 6.06803 37.4268 5.96094 37.5908 5.86523C 37.96 5.65104 38.3291 5.54395 38.6982 5.54395C 39.1038 5.54395 39.3477 5.80143 39.4297 6.31641C 39.457 6.47135 39.4753 6.63086 39.4844 6.79492C 40.168 6.2526 40.8835 5.87435 41.6309 5.66016C 41.9043 5.58268 42.1686 5.54395 42.4238 5.54395C 43.5085 5.54395 44.1943 5.97233 44.4814 6.8291C 45.1924 6.264 45.9147 5.87435 46.6484 5.66016C 46.9264 5.58268 47.209 5.54395 47.4961 5.54395C 47.7832 5.54395 48.0589 5.58268 48.3232 5.66016C 48.5921 5.73763 48.8223 5.86296 49.0137 6.03613C 49.4329 6.40983 49.6426 6.97949 49.6426 7.74512L 49.6426 12.332C 49.6426 12.7057 49.7702 12.9382 50.0254 13.0293C 50.0983 13.0566 50.1849 13.0794 50.2852 13.0977C 50.3854 13.1159 50.4766 13.1387 50.5586 13.166C 50.6406 13.1888 50.7044 13.2161 50.75 13.248C 50.8275 13.3073 50.8662 13.403 50.8662 13.5352C 50.8662 13.6947 50.8298 13.82 50.7568 13.9111C 50.6657 13.8883 50.5199 13.877 50.3193 13.877L 48.1387 13.877C 47.7012 13.877 47.4209 13.7995 47.2979 13.6445C 47.2477 13.5853 47.2227 13.5169 47.2227 13.4395C 47.2227 13.248 47.2591 13.1068 47.332 13.0156C 47.4414 13.0521 47.5622 13.0703 47.6943 13.0703C 47.8265 13.0703 47.9268 13.027 47.9951 12.9404C 48.068 12.8493 48.109 12.6829 48.1182 12.4414L 48.1182 8.23047C 48.1182 7.45573 47.888 7.02279 47.4277 6.93164C 47.2865 6.9043 47.1178 6.89062 46.9219 6.89062C 46.7305 6.89062 46.5208 6.91569 46.293 6.96582C 46.0697 7.01139 45.8555 7.0752 45.6504 7.15723C 45.2539 7.31673 44.9076 7.51953 44.6113 7.76562L 44.6113 12.332C 44.6113 12.7103 44.7389 12.9427 44.9941 13.0293C 45.0671 13.0566 45.1536 13.0794 45.2539 13.0977C 45.3542 13.1159 45.443 13.1387 45.5205 13.166C 45.6025 13.1888 45.6663 13.2161 45.7119 13.248C 45.7894 13.3073 45.8281 13.403 45.8281 13.5352C 45.8281 13.6992 45.7939 13.8245 45.7256 13.9111C 45.6344 13.8883 45.4886 13.877 45.2881 13.877L 43.1074 13.877C 42.6699 13.877 42.3896 13.7995 42.2666 13.6445C 42.2165 13.5853 42.1914 13.5169 42.1914 13.4395C 42.1914 13.2435 42.2256 13.1022 42.2939 13.0156C 42.4079 13.0521 42.5309 13.0703 42.6631 13.0703C 42.7952 13.0703 42.8955 13.0225 42.9639 12.9268C 43.0368 12.8311 43.0778 12.6556 43.0869 12.4004L 43.0869 8.23047C 43.0869 7.45573 42.8568 7.02279 42.3965 6.93164C 42.2552 6.9043 42.0843 6.89062 41.8838 6.89062C 41.6833 6.89062 41.4645 6.91797 41.2275 6.97266C 40.9906 7.02734 40.765 7.10026 40.5508 7.19141C 40.1406 7.36003 39.7874 7.57422 39.4912 7.83398L 39.4912 12.332C 39.4912 12.7057 39.6211 12.9382 39.8809 13.0293C 39.9492 13.0566 40.0335 13.0794 40.1338 13.0977C 40.234 13.1159 40.3252 13.1387 40.4072 13.166C 40.4893 13.1888 40.5531 13.2161 40.5986 13.248C 40.6761 13.3073 40.7148 13.403 40.7148 13.5352C 40.7148 13.6947 40.6784 13.82 40.6055 13.9111ZM 51.8984 10.1992C 51.8984 9.64779 51.9554 9.15788 52.0693 8.72949C 52.1833 8.30111 52.3359 7.91829 52.5273 7.58105C 52.7233 7.23926 52.9512 6.94076 53.2109 6.68555C 53.4753 6.43034 53.7578 6.21842 54.0586 6.0498C 54.651 5.71256 55.2344 5.54395 55.8086 5.54395C 56.3828 5.54395 56.8431 5.64648 57.1895 5.85156C 57.5358 6.05208 57.8184 6.32096 58.0371 6.6582C 58.4427 7.30078 58.6455 8.15527 58.6455 9.22168C 58.6455 9.61816 58.4792 9.82096 58.1465 9.83008L 53.375 9.93262C 53.4023 10.9215 53.6576 11.653 54.1406 12.127C 54.5508 12.528 55.0817 12.7285 55.7334 12.7285C 56.7041 12.7285 57.4925 12.5257 58.0986 12.1201C 58.1396 12.1201 58.1898 12.1543 58.249 12.2227C 58.363 12.3594 58.4199 12.4779 58.4199 12.5781C 58.4199 12.7969 58.1465 13.0771 57.5996 13.4189C 56.9707 13.8109 56.237 14.0068 55.3984 14.0068C 54.3047 14.0068 53.4456 13.6582 52.8213 12.9609C 52.2061 12.2773 51.8984 11.3568 51.8984 10.1992ZM 53.416 9.05078C 54.7285 8.98698 55.9294 8.90267 57.0186 8.79785C 57.0687 7.34863 56.5674 6.62402 55.5146 6.62402C 54.9268 6.62402 54.446 6.85189 54.0723 7.30762C 53.7305 7.72689 53.5117 8.30794 53.416 9.05078ZM 69.7812 7.9707C 69.7812 7.26888 69.4896 6.80404 68.9062 6.57617C 68.7194 6.50326 68.5166 6.4668 68.2979 6.4668C 68.0837 6.4668 67.8831 6.48503 67.6963 6.52148C 67.514 6.55794 67.3522 6.61491 67.2109 6.69238C 66.8919 6.86556 66.7324 7.11393 66.7324 7.4375C 66.7324 7.7474 66.8646 8.01628 67.1289 8.24414C 67.4206 8.48568 67.9629 8.78418 68.7559 9.13965C 69.5488 9.49056 70.1595 9.87565 70.5879 10.2949C 71.0208 10.7096 71.2373 11.1882 71.2373 11.7305C 71.2373 12.3411 70.9867 12.8561 70.4854 13.2754C 69.8975 13.763 69.084 14.0068 68.0449 14.0068C 66.7734 14.0068 65.8939 13.7357 65.4062 13.1934C 65.2376 13.002 65.1533 12.7581 65.1533 12.4619C 65.1533 11.7464 65.3288 11.3294 65.6797 11.2109C 65.7663 11.1836 65.8483 11.1699 65.9258 11.1699C 66.14 11.1699 66.2562 11.236 66.2744 11.3682C 66.3747 12.5075 67.0127 13.0771 68.1885 13.0771C 68.8949 13.0771 69.3665 12.8789 69.6035 12.4824C 69.681 12.3548 69.7197 12.1999 69.7197 12.0176C 69.7197 11.8353 69.6605 11.6689 69.542 11.5186C 69.4281 11.3682 69.2686 11.2292 69.0635 11.1016C 68.8584 10.9694 68.6146 10.8418 68.332 10.7188L 67.4229 10.3086C 66.0283 9.67057 65.3311 8.82292 65.3311 7.76562C 65.3311 7.08203 65.6341 6.53516 66.2402 6.125C 66.8145 5.73763 67.555 5.54395 68.4619 5.54395C 69.6924 5.54395 70.458 5.81055 70.7588 6.34375C 70.8363 6.48047 70.875 6.63086 70.875 6.79492C 70.875 6.95898 70.8659 7.1071 70.8477 7.23926C 70.8294 7.36686 70.8066 7.48307 70.7793 7.58789C 70.7337 7.78841 70.6813 7.92969 70.6221 8.01172C 70.5036 8.09831 70.3327 8.1416 70.1094 8.1416C 69.8906 8.1416 69.7812 8.08464 69.7812 7.9707ZM 76.3848 13.9111C 76.2936 13.8883 76.1478 13.877 75.9473 13.877L 73.7666 13.877C 73.3291 13.877 73.0488 13.7995 72.9258 13.6445C 72.8757 13.5853 72.8506 13.5169 72.8506 13.4395C 72.8506 13.248 72.887 13.1068 72.96 13.0156C 73.0693 13.0521 73.1924 13.0703 73.3291 13.0703C 73.4704 13.0703 73.5752 13.0133 73.6436 12.8994C 73.7165 12.7855 73.7507 12.5736 73.7461 12.2637L 73.7461 7.79297C 73.7461 7.36458 73.6663 7.09798 73.5068 6.99316C 73.443 6.95215 73.3587 6.93164 73.2539 6.93164C 73.1491 6.93164 73.0648 6.94759 73.001 6.97949C 72.9417 7.01139 72.8916 7.03418 72.8506 7.04785C 72.8141 7.06152 72.7822 7.06152 72.7549 7.04785C 72.7275 7.02962 72.7002 7.00456 72.6729 6.97266C 72.6045 6.89974 72.5703 6.82454 72.5703 6.74707C 72.5703 6.66504 72.5977 6.58073 72.6523 6.49414C 72.7116 6.40299 72.805 6.30046 72.9326 6.18652C 73.0602 6.06803 73.2061 5.96094 73.3701 5.86523C 73.7393 5.65104 74.1084 5.54395 74.4775 5.54395C 74.8831 5.54395 75.127 5.80143 75.209 6.31641C 75.2363 6.47135 75.2546 6.63086 75.2637 6.79492C 75.9473 6.2526 76.6628 5.87435 77.4102 5.66016C 77.6836 5.58268 77.9479 5.54395 78.2031 5.54395C 79.2878 5.54395 79.9736 5.97233 80.2607 6.8291C 80.9717 6.264 81.694 5.87435 82.4277 5.66016C 82.7057 5.58268 82.9883 5.54395 83.2754 5.54395C 83.5625 5.54395 83.8382 5.58268 84.1025 5.66016C 84.3714 5.73763 84.6016 5.86296 84.793 6.03613C 85.2122 6.40983 85.4219 6.97949 85.4219 7.74512L 85.4219 12.332C 85.4219 12.7057 85.5495 12.9382 85.8047 13.0293C 85.8776 13.0566 85.9642 13.0794 86.0645 13.0977C 86.1647 13.1159 86.2559 13.1387 86.3379 13.166C 86.4199 13.1888 86.4837 13.2161 86.5293 13.248C 86.6068 13.3073 86.6455 13.403 86.6455 13.5352C 86.6455 13.6947 86.6091 13.82 86.5361 13.9111C 86.445 13.8883 86.2992 13.877 86.0986 13.877L 83.918 13.877C 83.4805 13.877 83.2002 13.7995 83.0771 13.6445C 83.027 13.5853 83.002 13.5169 83.002 13.4395C 83.002 13.248 83.0384 13.1068 83.1113 13.0156C 83.2207 13.0521 83.3415 13.0703 83.4736 13.0703C 83.6058 13.0703 83.7061 13.027 83.7744 12.9404C 83.8473 12.8493 83.8883 12.6829 83.8975 12.4414L 83.8975 8.23047C 83.8975 7.45573 83.6673 7.02279 83.207 6.93164C 83.0658 6.9043 82.8971 6.89062 82.7012 6.89062C 82.5098 6.89062 82.3001 6.91569 82.0723 6.96582C 81.849 7.01139 81.6348 7.0752 81.4297 7.15723C 81.0332 7.31673 80.6868 7.51953 80.3906 7.76562L 80.3906 12.332C 80.3906 12.7103 80.5182 12.9427 80.7734 13.0293C 80.8464 13.0566 80.9329 13.0794 81.0332 13.0977C 81.1335 13.1159 81.2223 13.1387 81.2998 13.166C 81.3818 13.1888 81.4456 13.2161 81.4912 13.248C 81.5687 13.3073 81.6074 13.403 81.6074 13.5352C 81.6074 13.6992 81.5732 13.8245 81.5049 13.9111C 81.4137 13.8883 81.2679 13.877 81.0674 13.877L 78.8867 13.877C 78.4492 13.877 78.1689 13.7995 78.0459 13.6445C 77.9958 13.5853 77.9707 13.5169 77.9707 13.4395C 77.9707 13.2435 78.0049 13.1022 78.0732 13.0156C 78.1872 13.0521 78.3102 13.0703 78.4424 13.0703C 78.5745 13.0703 78.6748 13.0225 78.7432 12.9268C 78.8161 12.8311 78.8571 12.6556 78.8662 12.4004L 78.8662 8.23047C 78.8662 7.45573 78.6361 7.02279 78.1758 6.93164C 78.0345 6.9043 77.8636 6.89062 77.6631 6.89062C 77.4626 6.89062 77.2438 6.91797 77.0068 6.97266C 76.7699 7.02734 76.5443 7.10026 76.3301 7.19141C 75.9199 7.36003 75.5667 7.57422 75.2705 7.83398L 75.2705 12.332C 75.2705 12.7057 75.4004 12.9382 75.6602 13.0293C 75.7285 13.0566 75.8128 13.0794 75.9131 13.0977C 76.0133 13.1159 76.1045 13.1387 76.1865 13.166C 76.2686 13.1888 76.3324 13.2161 76.3779 13.248C 76.4554 13.3073 76.4941 13.403 76.4941 13.5352C 76.4941 13.6947 76.4577 13.82 76.3848 13.9111ZM 92.5107 13.0088C 91.8454 13.6742 91.041 14.0068 90.0977 14.0068C 89.3685 14.0068 88.7852 13.7972 88.3477 13.3779C 87.9056 12.9541 87.6846 12.4049 87.6846 11.7305C 87.6846 10.8919 88.0583 10.263 88.8057 9.84375C 89.4801 9.46094 90.4303 9.26953 91.6562 9.26953L 92.5107 9.26953C 92.5153 9.09635 92.5176 8.92773 92.5176 8.76367L 92.5176 8.25098C 92.5176 7.6403 92.4287 7.20964 92.251 6.95898C 92.0505 6.67643 91.7087 6.53516 91.2256 6.53516C 90.1182 6.53516 89.5485 6.93164 89.5166 7.72461C 89.512 7.84766 89.5143 7.9502 89.5234 8.03223C 89.4323 8.10514 89.2773 8.1416 89.0586 8.1416C 88.8444 8.1416 88.6872 8.11654 88.5869 8.06641C 88.4912 8.01628 88.4069 7.94792 88.334 7.86133C 88.179 7.68359 88.1016 7.45801 88.1016 7.18457C 88.1016 6.90658 88.1813 6.66504 88.3408 6.45996C 88.5049 6.25033 88.7259 6.07943 89.0039 5.94727C 89.5462 5.67839 90.1865 5.54395 90.9248 5.54395C 91.6631 5.54395 92.2168 5.61686 92.5859 5.7627C 92.9596 5.90397 93.2559 6.0931 93.4746 6.33008C 93.862 6.74935 94.0557 7.31217 94.0557 8.01855L 93.9873 11.2998C 93.9873 11.8968 94.0146 12.2751 94.0693 12.4346C 94.1286 12.5941 94.1969 12.7012 94.2744 12.7559C 94.3564 12.8105 94.4544 12.8379 94.5684 12.8379C 94.6868 12.8379 94.7826 12.8197 94.8555 12.7832L 95.0469 12.6943C 95.1107 12.6715 95.1654 12.6989 95.2109 12.7764C 95.2611 12.8493 95.2861 12.9154 95.2861 12.9746C 95.2861 13.0293 95.2611 13.1022 95.2109 13.1934C 95.1654 13.2845 95.0765 13.3825 94.9443 13.4873C 94.8167 13.5876 94.6709 13.6764 94.5068 13.7539C 93.5999 14.1823 92.9824 14.082 92.6543 13.4531C 92.5859 13.3301 92.5381 13.182 92.5107 13.0088ZM 92.4902 12.1133C 92.4902 11.457 92.4948 10.8053 92.5039 10.1582C 91.556 10.1947 90.9111 10.2562 90.5693 10.3428C 90.2321 10.4248 89.9883 10.5046 89.8379 10.582C 89.6875 10.6595 89.569 10.7507 89.4824 10.8555C 89.3411 11.0286 89.2705 11.2907 89.2705 11.6416C 89.2705 11.988 89.3936 12.266 89.6396 12.4756C 89.8857 12.6807 90.2389 12.7832 90.6992 12.7832C 91.3509 12.7832 91.9479 12.5599 92.4902 12.1133ZM 97.4053 13.877C 96.708 13.877 96.3594 13.7174 96.3594 13.3984C 96.3594 13.2298 96.3936 13.1022 96.4619 13.0156C 96.5713 13.0521 96.6738 13.0703 96.7695 13.0703C 97.166 13.0703 97.3711 12.8311 97.3848 12.3525L 97.3848 3.79395C 97.3848 3.47494 97.3529 3.27214 97.2891 3.18555C 97.1842 3.03971 97.0156 2.9668 96.7832 2.9668C 96.6784 2.9668 96.5758 2.97819 96.4756 3.00098C 96.3799 3.01921 96.3115 3.01921 96.2705 3.00098C 96.234 2.97819 96.2044 2.94857 96.1816 2.91211C 96.0905 2.76172 96.2044 2.57031 96.5234 2.33789C 97.0247 1.96875 97.5192 1.78418 98.0068 1.78418C 98.5264 1.78418 98.818 2.06445 98.8818 2.625C 98.9001 2.79362 98.9092 2.97135 98.9092 3.1582L 98.9092 12.3799C 98.9229 12.7354 99.0527 12.9541 99.2988 13.0361C 99.3717 13.0589 99.4561 13.0794 99.5518 13.0977C 99.652 13.1159 99.7432 13.1387 99.8252 13.166C 99.9072 13.1888 99.971 13.2161 100.017 13.248C 100.094 13.3073 100.133 13.403 100.133 13.5352C 100.133 13.6947 100.096 13.82 100.023 13.9111C 99.9323 13.8883 99.7865 13.877 99.5859 13.877L 97.4053 13.877ZM 102.3 13.877C 101.603 13.877 101.254 13.7174 101.254 13.3984C 101.254 13.2298 101.288 13.1022 101.356 13.0156C 101.466 13.0521 101.568 13.0703 101.664 13.0703C 102.061 13.0703 102.266 12.8311 102.279 12.3525L 102.279 3.79395C 102.279 3.47494 102.247 3.27214 102.184 3.18555C 102.079 3.03971 101.91 2.9668 101.678 2.9668C 101.573 2.9668 101.47 2.97819 101.37 3.00098C 101.274 3.01921 101.206 3.01921 101.165 3.00098C 101.129 2.97819 101.099 2.94857 101.076 2.91211C 100.985 2.76172 101.099 2.57031 101.418 2.33789C 101.919 1.96875 102.414 1.78418 102.901 1.78418C 103.421 1.78418 103.713 2.06445 103.776 2.625C 103.795 2.79362 103.804 2.97135 103.804 3.1582L 103.804 12.3799C 103.817 12.7354 103.947 12.9541 104.193 13.0361C 104.266 13.0589 104.351 13.0794 104.446 13.0977C 104.547 13.1159 104.638 13.1387 104.72 13.166C 104.802 13.1888 104.866 13.2161 104.911 13.248C 104.989 13.3073 105.027 13.403 105.027 13.5352C 105.027 13.6947 104.991 13.82 104.918 13.9111C 104.827 13.8883 104.681 13.877 104.48 13.877L 102.3 13.877ZM 113.23 13.542L 111.036 7.3418C 110.872 6.87695 110.729 6.64453 110.605 6.64453C 110.551 6.64453 110.487 6.65137 110.414 6.66504C 110.341 6.67871 110.282 6.65365 110.236 6.58984C 110.191 6.52604 110.168 6.44629 110.168 6.35059C 110.168 6.25488 110.207 6.1569 110.284 6.05664C 110.362 5.95638 110.46 5.86979 110.578 5.79688C 110.842 5.62826 111.073 5.54395 111.269 5.54395C 111.469 5.54395 111.617 5.5485 111.713 5.55762C 111.809 5.56673 111.9 5.59863 111.986 5.65332C 112.16 5.76725 112.305 6.02474 112.424 6.42578L 114.181 12.373C 114.614 11.097 114.894 10.2539 115.021 9.84375C 115.473 8.32161 115.773 7.19596 115.924 6.4668C 115.956 6.30273 116.106 6.16374 116.375 6.0498C 116.585 5.96322 116.762 5.91992 116.908 5.91992C 117.054 5.91992 117.15 5.93131 117.195 5.9541C 117.245 5.97233 117.282 6.00879 117.305 6.06348C 117.359 6.17285 117.4 6.30501 117.428 6.45996L 119.246 12.4209C 119.588 11.5869 119.82 11.0013 119.943 10.6641L 120.299 9.66602C 120.677 8.57682 120.866 7.72689 120.866 7.11621C 120.866 6.68327 120.657 6.44173 120.237 6.3916C 120.192 6.31869 120.169 6.24349 120.169 6.16602C 120.169 6.08398 120.208 6.00423 120.285 5.92676C 120.363 5.84473 120.463 5.77409 120.586 5.71484C 120.832 5.60091 121.08 5.54395 121.331 5.54395C 121.586 5.54395 121.782 5.55762 121.919 5.58496C 122.056 5.6123 122.165 5.66016 122.247 5.72852C 122.402 5.86523 122.479 6.07031 122.479 6.34375C 122.479 6.61263 122.45 6.88607 122.391 7.16406C 122.331 7.4375 122.252 7.73828 122.151 8.06641C 122.051 8.39453 121.935 8.73861 121.803 9.09863C 121.306 10.4202 120.944 11.3271 120.716 11.8193L 120.217 12.8584C 120.117 13.0589 120.039 13.2048 119.984 13.2959L 119.813 13.5625C 119.622 13.8587 119.396 14.0068 119.137 14.0068C 118.854 14.0068 118.622 13.9316 118.439 13.7812C 118.367 13.7174 118.314 13.6377 118.282 13.542L 116.587 8.64746C 116.131 10.0739 115.842 10.9671 115.719 11.3271C 115.345 12.3753 115.119 12.9792 115.042 13.1387C 114.965 13.2936 114.896 13.4212 114.837 13.5215C 114.778 13.6172 114.712 13.6992 114.639 13.7676C 114.475 13.9271 114.295 14.0068 114.099 14.0068C 113.825 14.0068 113.59 13.9271 113.395 13.7676C 113.322 13.7083 113.267 13.6331 113.23 13.542ZM 128.536 13.0088C 127.871 13.6742 127.066 14.0068 126.123 14.0068C 125.394 14.0068 124.811 13.7972 124.373 13.3779C 123.931 12.9541 123.71 12.4049 123.71 11.7305C 123.71 10.8919 124.084 10.263 124.831 9.84375C 125.506 9.46094 126.456 9.26953 127.682 9.26953L 128.536 9.26953C 128.541 9.09635 128.543 8.92773 128.543 8.76367L 128.543 8.25098C 128.543 7.6403 128.454 7.20964 128.276 6.95898C 128.076 6.67643 127.734 6.53516 127.251 6.53516C 126.144 6.53516 125.574 6.93164 125.542 7.72461C 125.537 7.84766 125.54 7.9502 125.549 8.03223C 125.458 8.10514 125.303 8.1416 125.084 8.1416C 124.87 8.1416 124.713 8.11654 124.612 8.06641C 124.517 8.01628 124.432 7.94792 124.359 7.86133C 124.204 7.68359 124.127 7.45801 124.127 7.18457C 124.127 6.90658 124.207 6.66504 124.366 6.45996C 124.53 6.25033 124.751 6.07943 125.029 5.94727C 125.572 5.67839 126.212 5.54395 126.95 5.54395C 127.688 5.54395 128.242 5.61686 128.611 5.7627C 128.985 5.90397 129.281 6.0931 129.5 6.33008C 129.887 6.74935 130.081 7.31217 130.081 8.01855L 130.013 11.2998C 130.013 11.8968 130.04 12.2751 130.095 12.4346C 130.154 12.5941 130.222 12.7012 130.3 12.7559C 130.382 12.8105 130.48 12.8379 130.594 12.8379C 130.712 12.8379 130.808 12.8197 130.881 12.7832L 131.072 12.6943C 131.136 12.6715 131.191 12.6989 131.236 12.7764C 131.286 12.8493 131.312 12.9154 131.312 12.9746C 131.312 13.0293 131.286 13.1022 131.236 13.1934C 131.191 13.2845 131.102 13.3825 130.97 13.4873C 130.842 13.5876 130.696 13.6764 130.532 13.7539C 129.625 14.1823 129.008 14.082 128.68 13.4531C 128.611 13.3301 128.563 13.182 128.536 13.0088ZM 128.516 12.1133C 128.516 11.457 128.52 10.8053 128.529 10.1582C 127.581 10.1947 126.937 10.2562 126.595 10.3428C 126.257 10.4248 126.014 10.5046 125.863 10.582C 125.713 10.6595 125.594 10.7507 125.508 10.8555C 125.367 11.0286 125.296 11.2907 125.296 11.6416C 125.296 11.988 125.419 12.266 125.665 12.4756C 125.911 12.6807 126.264 12.7832 126.725 12.7832C 127.376 12.7832 127.973 12.5599 128.516 12.1133ZM 131.906 6.64453L 131.763 6.67188C 131.662 6.67188 131.592 6.60352 131.551 6.4668C 131.537 6.43034 131.53 6.37793 131.53 6.30957C 131.53 6.24121 131.569 6.1569 131.646 6.05664C 131.724 5.95638 131.824 5.86979 131.947 5.79688C 132.221 5.62826 132.51 5.54395 132.815 5.54395C 133.057 5.54395 133.23 5.57812 133.335 5.64648C 133.54 5.77409 133.7 6.03385 133.813 6.42578L 135.898 12.4756C 136.327 11.5231 136.621 10.8486 136.78 10.4521L 137.197 9.39258C 137.585 8.35352 137.778 7.67676 137.778 7.3623C 137.778 7.04329 137.724 6.81087 137.614 6.66504C 137.505 6.51921 137.316 6.43262 137.047 6.40527C 136.997 6.35059 136.972 6.27767 136.972 6.18652C 136.972 6.09082 137.013 6.00423 137.095 5.92676C 137.181 5.84473 137.293 5.77409 137.43 5.71484C 137.708 5.60091 137.993 5.54395 138.284 5.54395C 138.58 5.54395 138.79 5.5599 138.913 5.5918C 139.036 5.61914 139.134 5.66699 139.207 5.73535C 139.348 5.86296 139.419 6.09994 139.419 6.44629C 139.419 6.75619 139.175 7.57422 138.688 8.90039C 138.232 10.0853 137.89 10.9443 137.662 11.4775C 136.824 13.346 136.192 14.654 135.769 15.4014C 135.345 16.1488 134.944 16.666 134.565 16.9531C 134.187 17.2448 133.788 17.3906 133.369 17.3906C 132.95 17.3906 132.633 17.2995 132.419 17.1172C 132.205 16.9395 132.098 16.6934 132.098 16.3789C 132.098 16.1419 132.157 15.9642 132.275 15.8457C 132.499 15.6224 132.736 15.5358 132.986 15.5859C 133.027 15.9277 133.232 16.0986 133.602 16.0986C 133.934 16.0986 134.233 15.8822 134.497 15.4492C 134.62 15.2441 134.741 15.0049 134.859 14.7314L 135.256 13.8496L 135.393 13.5693C 135.128 13.5329 134.905 13.403 134.723 13.1797C 134.65 13.0931 134.59 12.9837 134.545 12.8516L 132.631 7.82715L 132.467 7.42383C 132.257 6.9043 132.07 6.64453 131.906 6.64453ZM 140.854 12.8721C 140.854 12.5439 140.962 12.2728 141.176 12.0586C 141.395 11.8398 141.663 11.7305 141.982 11.7305C 142.502 11.7305 142.86 11.9583 143.056 12.4141C 143.115 12.5553 143.145 12.708 143.145 12.8721C 143.145 13.1911 143.035 13.4622 142.816 13.6855C 142.598 13.8997 142.32 14.0068 141.982 14.0068C 141.663 14.0068 141.395 13.8997 141.176 13.6855C 140.962 13.4668 140.854 13.1956 140.854 12.8721Z"/>
<path id="path5_fill" d="M 2.16 74.196C 3.744 74.892 5.196 75.24 6.516 75.24C 7.836 75.24 8.796 75 9.396 74.52C 10.02 74.016 10.332 73.404 10.332 72.684C 10.332 71.94 10.032 71.316 9.432 70.812C 8.856 70.308 8.148 69.912 7.308 69.624C 6.468 69.312 5.616 68.988 4.752 68.652C 3.912 68.316 3.192 67.788 2.592 67.068C 2.016 66.324 1.728 65.4 1.728 64.296C 1.728 62.664 2.304 61.368 3.456 60.408C 4.608 59.424 6.168 58.932 8.136 58.932C 10.104 58.932 11.688 59.28 12.888 59.976L 12.132 62.388C 10.74 61.908 9.456 61.668 8.28 61.668C 7.104 61.668 6.228 61.884 5.652 62.316C 5.076 62.748 4.788 63.336 4.788 64.08C 4.788 64.8 5.088 65.4 5.688 65.88C 6.288 66.36 7.008 66.744 7.848 67.032C 8.712 67.32 9.564 67.644 10.404 68.004C 11.244 68.34 11.964 68.868 12.564 69.588C 13.164 70.308 13.464 71.208 13.464 72.288C 13.464 73.872 12.876 75.216 11.7 76.32C 10.524 77.424 8.844 77.976 6.66 77.976C 5.652 77.976 4.632 77.844 3.6 77.58C 2.592 77.316 1.836 77.004 1.332 76.644L 2.16 74.196ZM 29.3448 75.672C 27.9528 77.208 26.1288 77.976 23.8728 77.976C 21.6168 77.976 19.8168 77.22 18.4728 75.708C 17.1288 74.196 16.4568 71.796 16.4568 68.508C 16.4568 65.196 17.1528 62.772 18.5448 61.236C 19.9608 59.7 21.7968 58.932 24.0528 58.932C 26.3088 58.932 28.0968 59.688 29.4168 61.2C 30.7608 62.712 31.4328 65.124 31.4328 68.436C 31.4328 71.724 30.7368 74.136 29.3448 75.672ZM 23.9808 61.596C 21.1728 61.596 19.7688 63.888 19.7688 68.472C 19.7688 73.032 21.1608 75.312 23.9448 75.312C 25.0968 75.312 26.0808 74.772 26.8968 73.692C 27.7128 72.612 28.1208 70.812 28.1208 68.292C 28.1208 65.772 27.7608 64.032 27.0408 63.072C 26.3448 62.088 25.3248 61.596 23.9808 61.596Z"/>
<path id="path6_fill" d="M 12.564 11.196L 16.38 11.196L 21.708 29.484L 24.3 9.396L 27.432 9.396L 24.228 33.444L 19.944 33.444L 14.508 14.076L 9.036 33.444L 4.716 33.444L 1.512 9.396L 4.644 9.396L 7.236 29.484L 12.564 11.196ZM 37.8759 33.912C 35.1879 33.912 33.1839 33 31.8639 31.176C 30.5679 29.328 29.9199 27.024 29.9199 24.264C 29.9199 21.48 30.6159 19.224 32.0079 17.496C 33.3999 15.744 35.3079 14.868 37.7319 14.868C 39.7719 14.868 41.3199 15.444 42.3759 16.596C 43.4559 17.724 43.9959 19.224 43.9959 21.096C 43.9959 21.936 43.8159 23.016 43.4559 24.336L 32.8719 24.336C 32.9199 26.376 33.3639 28.032 34.2039 29.304C 35.0439 30.576 36.2919 31.212 37.9479 31.212C 39.6279 31.212 41.2119 30.876 42.6999 30.204L 43.5279 32.436C 41.7999 33.42 39.9159 33.912 37.8759 33.912ZM 41.0439 21.708C 41.0439 20.412 40.7799 19.392 40.2519 18.648C 39.7239 17.904 38.9919 17.532 38.0559 17.532C 37.1199 17.532 36.3399 17.7 35.7159 18.036C 35.1159 18.348 34.6479 18.756 34.3119 19.26C 33.7359 20.22 33.3759 21.108 33.2319 21.924L 41.0439 21.996L 41.0439 21.708ZM 63.0236 17.604C 61.5356 17.604 60.0716 18.108 58.6316 19.116L 58.6316 30.6C 59.5436 30.984 60.6836 31.176 62.0516 31.176C 65.0756 31.176 66.5876 28.824 66.5876 24.12C 66.5876 19.776 65.3996 17.604 63.0236 17.604ZM 58.6316 8.244L 58.6316 16.56C 59.0876 16.2 59.7836 15.828 60.7196 15.444C 61.6796 15.06 62.6276 14.868 63.5636 14.868C 65.3876 14.868 66.9116 15.624 68.1356 17.136C 69.3596 18.624 69.9716 20.724 69.9716 23.436C 69.9716 30.42 67.3196 33.912 62.0156 33.912C 59.4716 33.912 57.2636 33.336 55.3916 32.184L 55.3916 8.244L 58.6316 8.244ZM 79.1381 33.912C 77.1701 33.912 75.8021 33.384 75.0341 32.328C 74.2661 31.248 73.8821 29.712 73.8821 27.72L 73.8821 15.228L 77.1221 15.228L 77.1221 27.648C 77.1221 28.848 77.2781 29.736 77.5901 30.312C 77.9021 30.864 78.5261 31.14 79.4621 31.14C 80.4221 31.14 81.3461 30.996 82.2341 30.708C 83.1461 30.396 83.8901 29.976 84.4661 29.448L 84.4661 15.336L 87.7061 15.336L 87.7061 33.768L 85.0781 33.768L 84.7181 31.824C 84.0221 32.4 83.1701 32.892 82.1621 33.3C 81.1541 33.708 80.1461 33.912 79.1381 33.912ZM 95.7935 33.444L 92.5175 33.444L 92.5175 15.372L 95.7935 15.048L 95.7935 33.444ZM 91.8695 9.864C 91.8695 9.264 92.0855 8.76 92.5175 8.352C 92.9495 7.92 93.4655 7.704 94.0655 7.704C 94.6655 7.704 95.1695 7.92 95.5775 8.352C 96.0095 8.76 96.2255 9.264 96.2255 9.864C 96.2255 10.464 96.0095 10.992 95.5775 11.448C 95.1695 11.88 94.6655 12.096 94.0655 12.096C 93.4655 12.096 92.9495 11.88 92.5175 11.448C 92.0855 10.992 91.8695 10.464 91.8695 9.864ZM 100.675 8.244L 103.951 8.244L 103.951 29.772C 103.951 30.708 104.383 31.176 105.247 31.176C 105.919 31.176 106.627 31.056 107.371 30.816L 107.911 33.192C 106.927 33.672 105.715 33.912 104.275 33.912C 101.875 33.912 100.675 32.544 100.675 29.808L 100.675 8.244ZM 116.432 33.912C 114.56 33.912 113.324 33.528 112.724 32.76C 112.124 31.968 111.824 30.624 111.824 28.728L 111.824 17.784L 108.26 17.604L 108.584 15.48L 111.896 15.228L 112.22 10.908L 115.136 10.368L 115.136 15.228L 120.464 15.228L 120.14 17.784L 115.1 17.784L 115.1 29.052C 115.1 29.556 115.112 29.94 115.136 30.204C 115.184 30.444 115.316 30.672 115.532 30.888C 115.772 31.08 116.276 31.176 117.044 31.176C 117.812 31.176 118.58 31.044 119.348 30.78L 119.96 33.192C 118.832 33.672 117.656 33.912 116.432 33.912ZM 140.771 33.912C 133.859 33.912 130.403 29.736 130.403 21.384C 130.403 17.064 131.279 13.908 133.031 11.916C 134.807 9.924 137.243 8.928 140.339 8.928C 141.971 8.928 143.783 9.204 145.775 9.756L 145.127 12.456C 143.519 12.096 142.103 11.916 140.879 11.916C 138.671 11.916 136.943 12.624 135.695 14.04C 134.471 15.456 133.859 17.856 133.859 21.24C 133.859 27.72 136.391 30.96 141.455 30.96C 142.679 30.96 143.999 30.816 145.415 30.528L 145.883 33.228C 143.987 33.684 142.283 33.912 140.771 33.912ZM 161.286 31.608C 159.894 33.144 158.07 33.912 155.814 33.912C 153.558 33.912 151.758 33.156 150.414 31.644C 149.07 30.132 148.398 27.732 148.398 24.444C 148.398 21.132 149.094 18.708 150.486 17.172C 151.902 15.636 153.738 14.868 155.994 14.868C 158.25 14.868 160.038 15.624 161.358 17.136C 162.702 18.648 163.374 21.06 163.374 24.372C 163.374 27.66 162.678 30.072 161.286 31.608ZM 155.922 17.532C 153.114 17.532 151.71 19.824 151.71 24.408C 151.71 28.968 153.102 31.248 155.886 31.248C 157.038 31.248 158.022 30.708 158.838 29.628C 159.654 28.548 160.062 26.748 160.062 24.228C 160.062 21.708 159.702 19.968 158.982 19.008C 158.286 18.024 157.266 17.532 155.922 17.532ZM 181.367 20.952L 181.367 33.444L 178.127 33.444L 178.127 21.132C 178.127 20.028 177.983 19.164 177.695 18.54C 177.407 17.916 176.819 17.604 175.931 17.604C 175.067 17.604 174.119 17.844 173.087 18.324C 172.079 18.78 171.287 19.344 170.711 20.016L 170.711 33.444L 167.471 33.444L 167.471 15.228L 170.171 15.228L 170.531 17.424C 171.203 16.776 172.103 16.188 173.231 15.66C 174.383 15.132 175.487 14.868 176.543 14.868C 178.343 14.868 179.591 15.408 180.287 16.488C 181.007 17.544 181.367 19.032 181.367 20.952ZM 196.151 15.264L 199.499 15.264L 193.667 33.444L 190.031 33.444L 184.235 15.228L 187.727 15.228L 191.867 30.204L 196.151 15.264ZM 209.368 33.912C 206.68 33.912 204.676 33 203.356 31.176C 202.06 29.328 201.412 27.024 201.412 24.264C 201.412 21.48 202.108 19.224 203.5 17.496C 204.892 15.744 206.8 14.868 209.224 14.868C 211.264 14.868 212.812 15.444 213.868 16.596C 214.948 17.724 215.488 19.224 215.488 21.096C 215.488 21.936 215.308 23.016 214.948 24.336L 204.364 24.336C 204.412 26.376 204.856 28.032 205.696 29.304C 206.536 30.576 207.784 31.212 209.44 31.212C 211.12 31.212 212.704 30.876 214.192 30.204L 215.02 32.436C 213.292 33.42 211.408 33.912 209.368 33.912ZM 212.536 21.708C 212.536 20.412 212.272 19.392 211.744 18.648C 211.216 17.904 210.484 17.532 209.548 17.532C 208.612 17.532 207.832 17.7 207.208 18.036C 206.608 18.348 206.14 18.756 205.804 19.26C 205.228 20.22 204.868 21.108 204.724 21.924L 212.536 21.996L 212.536 21.708ZM 222.637 33.444L 219.397 33.444L 219.397 15.228L 222.097 15.228L 222.457 17.928C 222.889 17.208 223.597 16.524 224.581 15.876C 225.589 15.204 226.729 14.868 228.001 14.868C 228.697 14.868 229.225 14.928 229.585 15.048L 228.937 17.64C 228.721 17.616 228.409 17.604 228.001 17.604C 225.385 17.604 223.597 18.552 222.637 20.448L 222.637 33.444ZM 237.918 14.868L 240.942 15.048C 242.742 15.048 244.602 14.88 246.522 14.544L 246.918 16.56C 246.006 16.752 244.746 16.956 243.138 17.172C 244.05 18.276 244.506 19.74 244.506 21.564C 244.506 23.388 243.954 24.912 242.85 26.136C 241.746 27.336 240.15 27.948 238.062 27.972C 237.438 27.972 236.826 27.912 236.226 27.792C 235.842 28.632 235.65 29.328 235.65 29.88C 235.65 30.696 236.286 31.104 237.558 31.104L 240.87 31.104C 242.598 31.104 243.942 31.5 244.902 32.292C 245.862 33.06 246.342 34.128 246.342 35.496C 246.342 37.44 245.562 39 244.002 40.176C 242.466 41.352 240.498 41.94 238.098 41.94C 235.722 41.94 233.91 41.532 232.662 40.716C 231.414 39.9 230.79 38.748 230.79 37.26C 230.79 35.388 231.894 33.876 234.102 32.724C 233.478 32.22 233.166 31.476 233.166 30.492C 233.166 29.508 233.634 28.416 234.57 27.216C 233.586 26.664 232.83 25.884 232.302 24.876C 231.774 23.844 231.51 22.692 231.51 21.42C 231.51 19.476 232.05 17.904 233.13 16.704C 234.21 15.48 235.806 14.868 237.918 14.868ZM 238.026 17.352C 235.674 17.352 234.498 18.696 234.498 21.384C 234.498 24.072 235.662 25.416 237.99 25.416C 240.342 25.416 241.518 24.084 241.518 21.42C 241.518 20.028 241.242 19.008 240.69 18.36C 240.162 17.688 239.274 17.352 238.026 17.352ZM 240.186 33.912L 235.758 33.912C 234.414 34.488 233.742 35.46 233.742 36.828C 233.742 37.668 234.15 38.292 234.966 38.7C 235.782 39.132 236.934 39.348 238.422 39.348C 239.934 39.348 241.134 39.024 242.022 38.376C 242.91 37.752 243.354 36.888 243.354 35.784C 243.354 35.136 243.126 34.656 242.67 34.344C 242.214 34.056 241.386 33.912 240.186 33.912ZM 256.618 33.912C 253.93 33.912 251.926 33 250.606 31.176C 249.31 29.328 248.662 27.024 248.662 24.264C 248.662 21.48 249.358 19.224 250.75 17.496C 252.142 15.744 254.05 14.868 256.474 14.868C 258.514 14.868 260.062 15.444 261.118 16.596C 262.198 17.724 262.738 19.224 262.738 21.096C 262.738 21.936 262.558 23.016 262.198 24.336L 251.614 24.336C 251.662 26.376 252.106 28.032 252.946 29.304C 253.786 30.576 255.034 31.212 256.69 31.212C 258.37 31.212 259.954 30.876 261.442 30.204L 262.27 32.436C 260.542 33.42 258.658 33.912 256.618 33.912ZM 259.786 21.708C 259.786 20.412 259.522 19.392 258.994 18.648C 258.466 17.904 257.734 17.532 256.798 17.532C 255.862 17.532 255.082 17.7 254.458 18.036C 253.858 18.348 253.39 18.756 253.054 19.26C 252.478 20.22 252.118 21.108 251.974 21.924L 259.786 21.996L 259.786 21.708ZM 280.543 20.952L 280.543 33.444L 277.303 33.444L 277.303 21.132C 277.303 20.028 277.159 19.164 276.871 18.54C 276.583 17.916 275.995 17.604 275.107 17.604C 274.243 17.604 273.295 17.844 272.263 18.324C 271.255 18.78 270.463 19.344 269.887 20.016L 269.887 33.444L 266.647 33.444L 266.647 15.228L 269.347 15.228L 269.707 17.424C 270.379 16.776 271.279 16.188 272.407 15.66C 273.559 15.132 274.663 14.868 275.719 14.868C 277.519 14.868 278.767 15.408 279.463 16.488C 280.183 17.544 280.543 19.032 280.543 20.952ZM 292.839 33.984C 290.415 33.984 288.411 33.192 286.827 31.608C 285.243 30 284.451 27.612 284.451 24.444C 284.451 21.252 285.243 18.864 286.827 17.28C 288.411 15.672 290.355 14.868 292.659 14.868C 294.291 14.868 295.779 15.216 297.123 15.912L 296.151 18.216C 294.879 17.808 293.739 17.604 292.731 17.604C 291.315 17.604 290.127 18.144 289.167 19.224C 288.231 20.304 287.763 22.032 287.763 24.408C 287.763 28.944 289.623 31.212 293.343 31.212C 294.399 31.212 295.515 31.056 296.691 30.744L 297.231 33.12C 295.695 33.696 294.231 33.984 292.839 33.984ZM 307.419 33.912C 304.731 33.912 302.727 33 301.407 31.176C 300.111 29.328 299.463 27.024 299.463 24.264C 299.463 21.48 300.159 19.224 301.551 17.496C 302.943 15.744 304.851 14.868 307.275 14.868C 309.315 14.868 310.863 15.444 311.919 16.596C 312.999 17.724 313.539 19.224 313.539 21.096C 313.539 21.936 313.359 23.016 312.999 24.336L 302.415 24.336C 302.463 26.376 302.907 28.032 303.747 29.304C 304.587 30.576 305.835 31.212 307.491 31.212C 309.171 31.212 310.755 30.876 312.243 30.204L 313.071 32.436C 311.343 33.42 309.459 33.912 307.419 33.912ZM 310.587 21.708C 310.587 20.412 310.323 19.392 309.795 18.648C 309.267 17.904 308.535 17.532 307.599 17.532C 306.663 17.532 305.883 17.7 305.259 18.036C 304.659 18.348 304.191 18.756 303.855 19.26C 303.279 20.22 302.919 21.108 302.775 21.924L 310.587 21.996L 310.587 21.708Z"/>
</defs>
</svg>
